%TF.GenerationSoftware,KiCad,Pcbnew,(6.0.1)*%
%TF.CreationDate,2022-03-10T14:05:26-07:00*%
%TF.ProjectId,RFSoC_directclocking,5246536f-435f-4646-9972-656374636c6f,rev?*%
%TF.SameCoordinates,Original*%
%TF.FileFunction,Legend,Top*%
%TF.FilePolarity,Positive*%
%FSLAX46Y46*%
G04 Gerber Fmt 4.6, Leading zero omitted, Abs format (unit mm)*
G04 Created by KiCad (PCBNEW (6.0.1)) date 2022-03-10 14:05:26*
%MOMM*%
%LPD*%
G01*
G04 APERTURE LIST*
%ADD10C,0.150000*%
%ADD11C,0.254000*%
%ADD12C,0.120000*%
%ADD13C,0.250000*%
G04 APERTURE END LIST*
D10*
X97144981Y-74091800D02*
G75*
G03*
X97144981Y-74091800I-91581J0D01*
G01*
X97280585Y-74091800D02*
G75*
G03*
X97280585Y-74091800I-227185J0D01*
G01*
X97376689Y-74091800D02*
G75*
G03*
X97376689Y-74091800I-323289J0D01*
G01*
X85812380Y-63017161D02*
X85812380Y-62826685D01*
X85860000Y-62731447D01*
X85955238Y-62636209D01*
X86145714Y-62588590D01*
X86479047Y-62588590D01*
X86669523Y-62636209D01*
X86764761Y-62731447D01*
X86812380Y-62826685D01*
X86812380Y-63017161D01*
X86764761Y-63112400D01*
X86669523Y-63207638D01*
X86479047Y-63255257D01*
X86145714Y-63255257D01*
X85955238Y-63207638D01*
X85860000Y-63112400D01*
X85812380Y-63017161D01*
X85812380Y-62160019D02*
X86621904Y-62160019D01*
X86717142Y-62112400D01*
X86764761Y-62064780D01*
X86812380Y-61969542D01*
X86812380Y-61779066D01*
X86764761Y-61683828D01*
X86717142Y-61636209D01*
X86621904Y-61588590D01*
X85812380Y-61588590D01*
X85812380Y-61255257D02*
X85812380Y-60683828D01*
X86812380Y-60969542D02*
X85812380Y-60969542D01*
X86907619Y-60588590D02*
X86907619Y-59826685D01*
X86812380Y-59588590D02*
X85812380Y-59588590D01*
X86812380Y-59017161D01*
X85812380Y-59017161D01*
X109231180Y-63171152D02*
X109231180Y-62980676D01*
X109278800Y-62885438D01*
X109374038Y-62790200D01*
X109564514Y-62742580D01*
X109897847Y-62742580D01*
X110088323Y-62790200D01*
X110183561Y-62885438D01*
X110231180Y-62980676D01*
X110231180Y-63171152D01*
X110183561Y-63266390D01*
X110088323Y-63361628D01*
X109897847Y-63409247D01*
X109564514Y-63409247D01*
X109374038Y-63361628D01*
X109278800Y-63266390D01*
X109231180Y-63171152D01*
X109231180Y-62314009D02*
X110040704Y-62314009D01*
X110135942Y-62266390D01*
X110183561Y-62218771D01*
X110231180Y-62123533D01*
X110231180Y-61933057D01*
X110183561Y-61837819D01*
X110135942Y-61790200D01*
X110040704Y-61742580D01*
X109231180Y-61742580D01*
X109231180Y-61409247D02*
X109231180Y-60837819D01*
X110231180Y-61123533D02*
X109231180Y-61123533D01*
X110326419Y-60742580D02*
X110326419Y-59980676D01*
X110231180Y-59742580D02*
X109231180Y-59742580D01*
X109231180Y-59361628D01*
X109278800Y-59266390D01*
X109326419Y-59218771D01*
X109421657Y-59171152D01*
X109564514Y-59171152D01*
X109659752Y-59218771D01*
X109707371Y-59266390D01*
X109754990Y-59361628D01*
X109754990Y-59742580D01*
X112431580Y-95579961D02*
X112431580Y-95389485D01*
X112479200Y-95294247D01*
X112574438Y-95199009D01*
X112764914Y-95151390D01*
X113098247Y-95151390D01*
X113288723Y-95199009D01*
X113383961Y-95294247D01*
X113431580Y-95389485D01*
X113431580Y-95579961D01*
X113383961Y-95675200D01*
X113288723Y-95770438D01*
X113098247Y-95818057D01*
X112764914Y-95818057D01*
X112574438Y-95770438D01*
X112479200Y-95675200D01*
X112431580Y-95579961D01*
X112431580Y-94722819D02*
X113241104Y-94722819D01*
X113336342Y-94675200D01*
X113383961Y-94627580D01*
X113431580Y-94532342D01*
X113431580Y-94341866D01*
X113383961Y-94246628D01*
X113336342Y-94199009D01*
X113241104Y-94151390D01*
X112431580Y-94151390D01*
X112431580Y-93818057D02*
X112431580Y-93246628D01*
X113431580Y-93532342D02*
X112431580Y-93532342D01*
X113526819Y-93151390D02*
X113526819Y-92389485D01*
X113431580Y-92151390D02*
X112431580Y-92151390D01*
X113431580Y-91579961D01*
X112431580Y-91579961D01*
X88453980Y-95632352D02*
X88453980Y-95441876D01*
X88501600Y-95346638D01*
X88596838Y-95251400D01*
X88787314Y-95203780D01*
X89120647Y-95203780D01*
X89311123Y-95251400D01*
X89406361Y-95346638D01*
X89453980Y-95441876D01*
X89453980Y-95632352D01*
X89406361Y-95727590D01*
X89311123Y-95822828D01*
X89120647Y-95870447D01*
X88787314Y-95870447D01*
X88596838Y-95822828D01*
X88501600Y-95727590D01*
X88453980Y-95632352D01*
X88453980Y-94775209D02*
X89263504Y-94775209D01*
X89358742Y-94727590D01*
X89406361Y-94679971D01*
X89453980Y-94584733D01*
X89453980Y-94394257D01*
X89406361Y-94299019D01*
X89358742Y-94251400D01*
X89263504Y-94203780D01*
X88453980Y-94203780D01*
X88453980Y-93870447D02*
X88453980Y-93299019D01*
X89453980Y-93584733D02*
X88453980Y-93584733D01*
X89549219Y-93203780D02*
X89549219Y-92441876D01*
X89453980Y-92203780D02*
X88453980Y-92203780D01*
X88453980Y-91822828D01*
X88501600Y-91727590D01*
X88549219Y-91679971D01*
X88644457Y-91632352D01*
X88787314Y-91632352D01*
X88882552Y-91679971D01*
X88930171Y-91727590D01*
X88977790Y-91822828D01*
X88977790Y-92203780D01*
X125922304Y-71502542D02*
X125874685Y-71550161D01*
X125731828Y-71597780D01*
X125636590Y-71597780D01*
X125493733Y-71550161D01*
X125398495Y-71454923D01*
X125350876Y-71359685D01*
X125303257Y-71169209D01*
X125303257Y-71026352D01*
X125350876Y-70835876D01*
X125398495Y-70740638D01*
X125493733Y-70645400D01*
X125636590Y-70597780D01*
X125731828Y-70597780D01*
X125874685Y-70645400D01*
X125922304Y-70693019D01*
X126827066Y-71597780D02*
X126350876Y-71597780D01*
X126350876Y-70597780D01*
X127160400Y-71597780D02*
X127160400Y-70597780D01*
X127731828Y-71597780D02*
X127303257Y-71026352D01*
X127731828Y-70597780D02*
X127160400Y-71169209D01*
X127922304Y-71693019D02*
X128684209Y-71693019D01*
X128922304Y-71597780D02*
X128922304Y-70597780D01*
X129398495Y-71597780D02*
X129398495Y-70597780D01*
X129969923Y-71597780D01*
X129969923Y-70597780D01*
%TO.C,C4*%
X104431142Y-71413666D02*
X104478761Y-71461285D01*
X104526380Y-71604142D01*
X104526380Y-71699380D01*
X104478761Y-71842238D01*
X104383523Y-71937476D01*
X104288285Y-71985095D01*
X104097809Y-72032714D01*
X103954952Y-72032714D01*
X103764476Y-71985095D01*
X103669238Y-71937476D01*
X103574000Y-71842238D01*
X103526380Y-71699380D01*
X103526380Y-71604142D01*
X103574000Y-71461285D01*
X103621619Y-71413666D01*
X103859714Y-70556523D02*
X104526380Y-70556523D01*
X103478761Y-70794619D02*
X104193047Y-71032714D01*
X104193047Y-70413666D01*
%TO.C,J4*%
X75089466Y-64499392D02*
X75089466Y-65213678D01*
X75041847Y-65356535D01*
X74946609Y-65451773D01*
X74803752Y-65499392D01*
X74708514Y-65499392D01*
X75994228Y-64832726D02*
X75994228Y-65499392D01*
X75756133Y-64451773D02*
X75518038Y-65166059D01*
X76137085Y-65166059D01*
%TO.C,J1*%
X123473119Y-74676339D02*
X124187405Y-74676339D01*
X124330262Y-74723958D01*
X124425500Y-74819196D01*
X124473119Y-74962053D01*
X124473119Y-75057291D01*
X124473119Y-73676339D02*
X124473119Y-74247767D01*
X124473119Y-73962053D02*
X123473119Y-73962053D01*
X123615977Y-74057291D01*
X123711215Y-74152529D01*
X123758834Y-74247767D01*
%TO.C,U1*%
X103767380Y-85597904D02*
X104576904Y-85597904D01*
X104672142Y-85550285D01*
X104719761Y-85502666D01*
X104767380Y-85407428D01*
X104767380Y-85216952D01*
X104719761Y-85121714D01*
X104672142Y-85074095D01*
X104576904Y-85026476D01*
X103767380Y-85026476D01*
X104767380Y-84026476D02*
X104767380Y-84597904D01*
X104767380Y-84312190D02*
X103767380Y-84312190D01*
X103910238Y-84407428D01*
X104005476Y-84502666D01*
X104053095Y-84597904D01*
%TO.C,C5*%
X92350333Y-70478142D02*
X92302714Y-70525761D01*
X92159857Y-70573380D01*
X92064619Y-70573380D01*
X91921761Y-70525761D01*
X91826523Y-70430523D01*
X91778904Y-70335285D01*
X91731285Y-70144809D01*
X91731285Y-70001952D01*
X91778904Y-69811476D01*
X91826523Y-69716238D01*
X91921761Y-69621000D01*
X92064619Y-69573380D01*
X92159857Y-69573380D01*
X92302714Y-69621000D01*
X92350333Y-69668619D01*
X93255095Y-69573380D02*
X92778904Y-69573380D01*
X92731285Y-70049571D01*
X92778904Y-70001952D01*
X92874142Y-69954333D01*
X93112238Y-69954333D01*
X93207476Y-70001952D01*
X93255095Y-70049571D01*
X93302714Y-70144809D01*
X93302714Y-70382904D01*
X93255095Y-70478142D01*
X93207476Y-70525761D01*
X93112238Y-70573380D01*
X92874142Y-70573380D01*
X92778904Y-70525761D01*
X92731285Y-70478142D01*
D11*
%TO.C,U3*%
X99595630Y-76901523D02*
X99595630Y-77929619D01*
X99656107Y-78050571D01*
X99716583Y-78111047D01*
X99837535Y-78171523D01*
X100079440Y-78171523D01*
X100200392Y-78111047D01*
X100260869Y-78050571D01*
X100321345Y-77929619D01*
X100321345Y-76901523D01*
X100805154Y-76901523D02*
X101591345Y-76901523D01*
X101168011Y-77385333D01*
X101349440Y-77385333D01*
X101470392Y-77445809D01*
X101530869Y-77506285D01*
X101591345Y-77627238D01*
X101591345Y-77929619D01*
X101530869Y-78050571D01*
X101470392Y-78111047D01*
X101349440Y-78171523D01*
X100986583Y-78171523D01*
X100865630Y-78111047D01*
X100805154Y-78050571D01*
D10*
%TO.C,U2*%
X93826380Y-70992904D02*
X94635904Y-70992904D01*
X94731142Y-70945285D01*
X94778761Y-70897666D01*
X94826380Y-70802428D01*
X94826380Y-70611952D01*
X94778761Y-70516714D01*
X94731142Y-70469095D01*
X94635904Y-70421476D01*
X93826380Y-70421476D01*
X93921619Y-69992904D02*
X93874000Y-69945285D01*
X93826380Y-69850047D01*
X93826380Y-69611952D01*
X93874000Y-69516714D01*
X93921619Y-69469095D01*
X94016857Y-69421476D01*
X94112095Y-69421476D01*
X94254952Y-69469095D01*
X94826380Y-70040523D01*
X94826380Y-69421476D01*
%TO.C,J3*%
X115998666Y-89722380D02*
X115998666Y-90436666D01*
X115951047Y-90579523D01*
X115855809Y-90674761D01*
X115712952Y-90722380D01*
X115617714Y-90722380D01*
X116379619Y-89722380D02*
X116998666Y-89722380D01*
X116665333Y-90103333D01*
X116808190Y-90103333D01*
X116903428Y-90150952D01*
X116951047Y-90198571D01*
X116998666Y-90293809D01*
X116998666Y-90531904D01*
X116951047Y-90627142D01*
X116903428Y-90674761D01*
X116808190Y-90722380D01*
X116522476Y-90722380D01*
X116427238Y-90674761D01*
X116379619Y-90627142D01*
%TO.C,C2*%
X106501142Y-84875666D02*
X106548761Y-84923285D01*
X106596380Y-85066142D01*
X106596380Y-85161380D01*
X106548761Y-85304238D01*
X106453523Y-85399476D01*
X106358285Y-85447095D01*
X106167809Y-85494714D01*
X106024952Y-85494714D01*
X105834476Y-85447095D01*
X105739238Y-85399476D01*
X105644000Y-85304238D01*
X105596380Y-85161380D01*
X105596380Y-85066142D01*
X105644000Y-84923285D01*
X105691619Y-84875666D01*
X105691619Y-84494714D02*
X105644000Y-84447095D01*
X105596380Y-84351857D01*
X105596380Y-84113761D01*
X105644000Y-84018523D01*
X105691619Y-83970904D01*
X105786857Y-83923285D01*
X105882095Y-83923285D01*
X106024952Y-83970904D01*
X106596380Y-84542333D01*
X106596380Y-83923285D01*
%TO.C,J5*%
X112986266Y-64476380D02*
X112986266Y-65190666D01*
X112938647Y-65333523D01*
X112843409Y-65428761D01*
X112700552Y-65476380D01*
X112605314Y-65476380D01*
X113938647Y-64476380D02*
X113462457Y-64476380D01*
X113414838Y-64952571D01*
X113462457Y-64904952D01*
X113557695Y-64857333D01*
X113795790Y-64857333D01*
X113891028Y-64904952D01*
X113938647Y-64952571D01*
X113986266Y-65047809D01*
X113986266Y-65285904D01*
X113938647Y-65381142D01*
X113891028Y-65428761D01*
X113795790Y-65476380D01*
X113557695Y-65476380D01*
X113462457Y-65428761D01*
X113414838Y-65381142D01*
%TO.C,C1*%
X117915333Y-78860142D02*
X117867714Y-78907761D01*
X117724857Y-78955380D01*
X117629619Y-78955380D01*
X117486761Y-78907761D01*
X117391523Y-78812523D01*
X117343904Y-78717285D01*
X117296285Y-78526809D01*
X117296285Y-78383952D01*
X117343904Y-78193476D01*
X117391523Y-78098238D01*
X117486761Y-78003000D01*
X117629619Y-77955380D01*
X117724857Y-77955380D01*
X117867714Y-78003000D01*
X117915333Y-78050619D01*
X118867714Y-78955380D02*
X118296285Y-78955380D01*
X118582000Y-78955380D02*
X118582000Y-77955380D01*
X118486761Y-78098238D01*
X118391523Y-78193476D01*
X118296285Y-78241095D01*
%TO.C,C3*%
X95464333Y-87623142D02*
X95416714Y-87670761D01*
X95273857Y-87718380D01*
X95178619Y-87718380D01*
X95035761Y-87670761D01*
X94940523Y-87575523D01*
X94892904Y-87480285D01*
X94845285Y-87289809D01*
X94845285Y-87146952D01*
X94892904Y-86956476D01*
X94940523Y-86861238D01*
X95035761Y-86766000D01*
X95178619Y-86718380D01*
X95273857Y-86718380D01*
X95416714Y-86766000D01*
X95464333Y-86813619D01*
X95797666Y-86718380D02*
X96416714Y-86718380D01*
X96083380Y-87099333D01*
X96226238Y-87099333D01*
X96321476Y-87146952D01*
X96369095Y-87194571D01*
X96416714Y-87289809D01*
X96416714Y-87527904D01*
X96369095Y-87623142D01*
X96321476Y-87670761D01*
X96226238Y-87718380D01*
X95940523Y-87718380D01*
X95845285Y-87670761D01*
X95797666Y-87623142D01*
%TO.C,J2*%
X78152666Y-89622380D02*
X78152666Y-90336666D01*
X78105047Y-90479523D01*
X78009809Y-90574761D01*
X77866952Y-90622380D01*
X77771714Y-90622380D01*
X78581238Y-89717619D02*
X78628857Y-89670000D01*
X78724095Y-89622380D01*
X78962190Y-89622380D01*
X79057428Y-89670000D01*
X79105047Y-89717619D01*
X79152666Y-89812857D01*
X79152666Y-89908095D01*
X79105047Y-90050952D01*
X78533619Y-90622380D01*
X79152666Y-90622380D01*
D12*
%TO.C,C4*%
X102922164Y-69321000D02*
X103137836Y-69321000D01*
X102922164Y-68601000D02*
X103137836Y-68601000D01*
%TO.C,J4*%
X78982800Y-64797000D02*
X79482800Y-64797000D01*
X79482800Y-64797000D02*
X79232800Y-64297000D01*
X79232800Y-64297000D02*
X78982800Y-64797000D01*
%TO.C,J1*%
X124770750Y-77343000D02*
X124270750Y-77093000D01*
X124270750Y-77593000D02*
X124770750Y-77343000D01*
X124270750Y-77093000D02*
X124270750Y-77593000D01*
%TO.C,U1*%
X100965000Y-82821000D02*
X98935000Y-82821000D01*
X102995000Y-86851000D02*
X98935000Y-86851000D01*
%TO.C,C5*%
X92624836Y-69321000D02*
X92409164Y-69321000D01*
X92624836Y-68601000D02*
X92409164Y-68601000D01*
D13*
%TO.C,U3*%
X97813250Y-75097000D02*
G75*
G03*
X97813250Y-75097000I-125000J0D01*
G01*
D12*
%TO.C,U2*%
X97724000Y-72246000D02*
X99754000Y-72246000D01*
X95694000Y-68216000D02*
X99754000Y-68216000D01*
%TO.C,J3*%
X119634000Y-90770000D02*
X119884000Y-90270000D01*
X119384000Y-90270000D02*
X119634000Y-90770000D01*
X119884000Y-90270000D02*
X119384000Y-90270000D01*
%TO.C,C2*%
X106064164Y-85746000D02*
X106279836Y-85746000D01*
X106064164Y-86466000D02*
X106279836Y-86466000D01*
%TO.C,J5*%
X116871600Y-64797000D02*
X116621600Y-64297000D01*
X116371600Y-64797000D02*
X116871600Y-64797000D01*
X116621600Y-64297000D02*
X116371600Y-64797000D01*
%TO.C,C1*%
X118189836Y-76983000D02*
X117974164Y-76983000D01*
X118189836Y-77703000D02*
X117974164Y-77703000D01*
%TO.C,C3*%
X95738836Y-85746000D02*
X95523164Y-85746000D01*
X95738836Y-86466000D02*
X95523164Y-86466000D01*
%TO.C,J2*%
X82546000Y-90270000D02*
X82046000Y-90270000D01*
X82296000Y-90770000D02*
X82546000Y-90270000D01*
X82046000Y-90270000D02*
X82296000Y-90770000D01*
%TD*%
M02*
