M48
; DRILL file {KiCad (6.0.1)} date Thu Mar 10 14:05:33 2022
; FORMAT={-:-/ absolute / inch / decimal}
; #@! TF.CreationDate,2022-03-10T14:05:33-07:00
; #@! TF.GenerationSoftware,Kicad,Pcbnew,(6.0.1)
; #@! TF.FileFunction,Plated,1,2,PTH
FMAT,2
INCH
; #@! TA.AperFunction,Plated,PTH,ViaDrill
T1C0.0157
%
G90
G05
T1
X3.0Y-2.6
X3.0Y-2.7
X3.0Y-2.8
X3.0Y-2.9
X3.0Y-3.0
X3.0Y-3.0
X3.0Y-3.1
X3.0Y-3.2
X3.0Y-3.3
X3.0Y-3.4
X3.0Y-3.5
X3.1Y-2.7
X3.1Y-2.8
X3.1Y-2.9
X3.1Y-3.0
X3.1Y-3.1
X3.1Y-3.2
X3.1Y-3.2
X3.1Y-3.3
X3.1Y-3.4
X3.2Y-2.8
X3.2Y-3.1
X3.2Y-3.2
X3.2Y-3.3
X3.2Y-3.4
X3.3Y-2.6
X3.3Y-2.8
X3.3Y-2.8
X3.3Y-3.3
X3.4Y-2.6
X3.4Y-2.8
X3.4Y-3.3
X3.4Y-3.5
X3.5Y-2.4
X3.5Y-2.5
X3.5Y-2.6
X3.5Y-2.8
X3.5Y-2.9
X3.5Y-3.0
X3.5Y-3.0
X3.5Y-3.1
X3.5Y-3.2
X3.5Y-3.3
X3.5Y-3.5
X3.6Y-2.4
X3.6Y-2.5
X3.6Y-2.6
X3.6Y-2.8
X3.6Y-2.9
X3.6Y-3.0
X3.6Y-3.0
X3.6Y-3.1
X3.6Y-3.2
X3.6Y-3.3
X3.6Y-3.5
X3.6Y-3.6
X3.6Y-3.7
X3.7Y-2.4
X3.7Y-2.5
X3.7Y-2.6
X3.7Y-2.8
X3.7Y-2.9
X3.7Y-3.0
X3.7Y-3.1
X3.7Y-3.2
X3.7Y-3.3
X3.7Y-3.5
X3.7Y-3.6
X3.7Y-3.6
X3.7Y-3.7
X3.8Y-2.4
X3.8Y-2.5
X3.8Y-2.6
X3.8Y-3.3
X3.8Y-3.5
X3.8Y-3.6
X3.8Y-3.7
X3.8Y-3.7
X3.9Y-2.4
X3.9Y-2.5
X3.9Y-2.6
X3.9Y-3.5
X3.9Y-3.6
X3.9Y-3.7
X4.0Y-2.4
X4.0Y-2.5
X4.0Y-2.6
X4.0Y-2.8
X4.0Y-3.5
X4.0Y-3.6
X4.0Y-3.7
X4.1Y-2.4
X4.1Y-2.5
X4.1Y-2.6
X4.1Y-2.8
X4.1Y-3.5
X4.1Y-3.6
X4.1Y-3.6
X4.1Y-3.7
X4.2Y-2.4
X4.2Y-2.4
X4.2Y-2.5
X4.2Y-2.6
X4.2Y-2.8
X4.2Y-2.9
X4.2Y-3.2
X4.2Y-3.3
X4.2Y-3.5
X4.2Y-3.6
X4.2Y-3.7
X4.3Y-2.4
X4.3Y-2.5
X4.3Y-2.6
X4.3Y-2.8
X4.3Y-2.9
X4.3Y-3.2
X4.3Y-3.3
X4.3Y-3.5
X4.3Y-3.6
X4.3Y-3.7
X4.4Y-2.6
X4.4Y-2.8
X4.4Y-2.9
X4.4Y-2.9
X4.4Y-3.2
X4.4Y-3.3
X4.4Y-3.5
X4.4Y-3.6
X4.4Y-3.7
X4.5Y-2.8
X4.5Y-2.9
X4.5Y-3.2
X4.5Y-3.3
X4.5Y-3.5
X4.6Y-2.8
X4.6Y-2.9
X4.6Y-3.2
X4.6Y-3.3
X4.7Y-2.6
X4.7Y-2.7
X4.7Y-2.8
X4.7Y-2.9
X4.7Y-3.2
X4.7Y-3.3
X4.8Y-2.6
X4.8Y-2.7
X4.8Y-2.8
X4.8Y-2.9
X4.8Y-3.2
X4.8Y-3.3
X4.8Y-3.4
X4.9Y-2.5
X4.9Y-2.6
X4.9Y-2.7
X4.9Y-2.8
X4.9Y-3.4
X4.9Y-3.5
X5.0Y-2.4
X5.0Y-2.5
X5.0Y-2.6
X5.0Y-2.7
X5.0Y-3.4
X5.0Y-3.5
X5.0Y-3.6
X5.0Y-3.7
X5.1Y-2.4
X5.1Y-2.5
X5.1Y-2.6
X5.1Y-2.7
X5.1Y-3.4
X5.1Y-3.5
X5.1Y-3.6
X5.1Y-3.7
T0
M30
