%TF.GenerationSoftware,KiCad,Pcbnew,(6.0.1)*%
%TF.CreationDate,2022-03-10T14:05:26-07:00*%
%TF.ProjectId,RFSoC_directclocking,5246536f-435f-4646-9972-656374636c6f,rev?*%
%TF.SameCoordinates,Original*%
%TF.FileFunction,Legend,Bot*%
%TF.FilePolarity,Positive*%
%FSLAX46Y46*%
G04 Gerber Fmt 4.6, Leading zero omitted, Abs format (unit mm)*
G04 Created by KiCad (PCBNEW (6.0.1)) date 2022-03-10 14:05:26*
%MOMM*%
%LPD*%
G01*
G04 APERTURE LIST*
%ADD10C,0.150000*%
G04 APERTURE END LIST*
D10*
X87126233Y-81192914D02*
X86787566Y-81192914D01*
X86999233Y-81700914D02*
X86999233Y-81047771D01*
X86956900Y-80975200D01*
X86872233Y-80938914D01*
X86787566Y-80938914D01*
X86364233Y-81700914D02*
X86448900Y-81664628D01*
X86491233Y-81628342D01*
X86533566Y-81555771D01*
X86533566Y-81338057D01*
X86491233Y-81265485D01*
X86448900Y-81229200D01*
X86364233Y-81192914D01*
X86237233Y-81192914D01*
X86152566Y-81229200D01*
X86110233Y-81265485D01*
X86067900Y-81338057D01*
X86067900Y-81555771D01*
X86110233Y-81628342D01*
X86152566Y-81664628D01*
X86237233Y-81700914D01*
X86364233Y-81700914D01*
X85686900Y-81700914D02*
X85686900Y-81192914D01*
X85686900Y-81338057D02*
X85644566Y-81265485D01*
X85602233Y-81229200D01*
X85517566Y-81192914D01*
X85432900Y-81192914D01*
X85136566Y-81700914D02*
X85136566Y-80938914D01*
X85051900Y-81410628D02*
X84797900Y-81700914D01*
X84797900Y-81192914D02*
X85136566Y-81483200D01*
X84374566Y-80938914D02*
X84459233Y-81084057D01*
X83654900Y-81664628D02*
X83739566Y-81700914D01*
X83908900Y-81700914D01*
X83993566Y-81664628D01*
X84035900Y-81592057D01*
X84035900Y-81301771D01*
X83993566Y-81229200D01*
X83908900Y-81192914D01*
X83739566Y-81192914D01*
X83654900Y-81229200D01*
X83612566Y-81301771D01*
X83612566Y-81374342D01*
X84035900Y-81446914D01*
X83231566Y-81700914D02*
X83231566Y-81192914D01*
X83231566Y-81265485D02*
X83189233Y-81229200D01*
X83104566Y-81192914D01*
X82977566Y-81192914D01*
X82892900Y-81229200D01*
X82850566Y-81301771D01*
X82850566Y-81700914D01*
X82850566Y-81301771D02*
X82808233Y-81229200D01*
X82723566Y-81192914D01*
X82596566Y-81192914D01*
X82511900Y-81229200D01*
X82469566Y-81301771D01*
X82469566Y-81700914D01*
%TO.C,G\u002A\u002A\u002A*%
G36*
X85340739Y-78523131D02*
G01*
X85334381Y-78568275D01*
X85327894Y-78614365D01*
X85321322Y-78661082D01*
X85314712Y-78708105D01*
X85308107Y-78755113D01*
X85301554Y-78801786D01*
X85295097Y-78847803D01*
X85288782Y-78892844D01*
X85282652Y-78936588D01*
X85276755Y-78978714D01*
X85271133Y-79018901D01*
X85265833Y-79056830D01*
X85260900Y-79092179D01*
X85256378Y-79124628D01*
X85252313Y-79153857D01*
X85248750Y-79179543D01*
X85245734Y-79201368D01*
X85243309Y-79219011D01*
X85241522Y-79232150D01*
X85240416Y-79240465D01*
X85240038Y-79243635D01*
X85239661Y-79244763D01*
X85236157Y-79246267D01*
X85235436Y-79246144D01*
X85232587Y-79242295D01*
X85230661Y-79233159D01*
X85230614Y-79232749D01*
X85230112Y-79227409D01*
X85229197Y-79216972D01*
X85227897Y-79201775D01*
X85226240Y-79182159D01*
X85224255Y-79158463D01*
X85221969Y-79131025D01*
X85219411Y-79100184D01*
X85216608Y-79066279D01*
X85213590Y-79029651D01*
X85210384Y-78990637D01*
X85207018Y-78949576D01*
X85203520Y-78906809D01*
X85199919Y-78862673D01*
X85199158Y-78853351D01*
X85195575Y-78809589D01*
X85192091Y-78767331D01*
X85188737Y-78726909D01*
X85185539Y-78688658D01*
X85182527Y-78652910D01*
X85179729Y-78619998D01*
X85177175Y-78590256D01*
X85174891Y-78564016D01*
X85172908Y-78541612D01*
X85171254Y-78523377D01*
X85169956Y-78509644D01*
X85169045Y-78500746D01*
X85168548Y-78497017D01*
X85168243Y-78495939D01*
X85166347Y-78491684D01*
X85164752Y-78492877D01*
X85164738Y-78492926D01*
X85164107Y-78496406D01*
X85162632Y-78505114D01*
X85160345Y-78518850D01*
X85157279Y-78537410D01*
X85153467Y-78560593D01*
X85148943Y-78588197D01*
X85146414Y-78603661D01*
X85143738Y-78620019D01*
X85137887Y-78655857D01*
X85131421Y-78695510D01*
X85125544Y-78731593D01*
X85124374Y-78738775D01*
X85116778Y-78785450D01*
X85108935Y-78833685D01*
X85108667Y-78835332D01*
X85100073Y-78888221D01*
X85091029Y-78943914D01*
X85081569Y-79002208D01*
X85071724Y-79062901D01*
X85061529Y-79125793D01*
X85051015Y-79190679D01*
X85040216Y-79257359D01*
X85029164Y-79325629D01*
X85017893Y-79395289D01*
X85016881Y-79401543D01*
X85005631Y-79471079D01*
X84994606Y-79539204D01*
X84983839Y-79605716D01*
X84973362Y-79670414D01*
X84963209Y-79733095D01*
X84953413Y-79793557D01*
X84944005Y-79851600D01*
X84935019Y-79907020D01*
X84926488Y-79959617D01*
X84918444Y-80009187D01*
X84910920Y-80055530D01*
X84903949Y-80098443D01*
X84897564Y-80137724D01*
X84891797Y-80173172D01*
X84886681Y-80204585D01*
X84882250Y-80231760D01*
X84878535Y-80254496D01*
X84875570Y-80272591D01*
X84873387Y-80285844D01*
X84872020Y-80294051D01*
X84871500Y-80297011D01*
X84869636Y-80299678D01*
X84866397Y-80300142D01*
X84864722Y-80297113D01*
X84864602Y-80296153D01*
X84863728Y-80290311D01*
X84862044Y-80279405D01*
X84859589Y-80263681D01*
X84856401Y-80243382D01*
X84852519Y-80218754D01*
X84847983Y-80190040D01*
X84842831Y-80157486D01*
X84837102Y-80121336D01*
X84830836Y-80081834D01*
X84824072Y-80039224D01*
X84816848Y-79993753D01*
X84809203Y-79945663D01*
X84801177Y-79895199D01*
X84792809Y-79842607D01*
X84784137Y-79788129D01*
X84775200Y-79732012D01*
X84766038Y-79674499D01*
X84756690Y-79615835D01*
X84747195Y-79556265D01*
X84737590Y-79496033D01*
X84727917Y-79435383D01*
X84718213Y-79374560D01*
X84708518Y-79313809D01*
X84698870Y-79253373D01*
X84689310Y-79193499D01*
X84679874Y-79134429D01*
X84670604Y-79076409D01*
X84661537Y-79019683D01*
X84652713Y-78964496D01*
X84644171Y-78911091D01*
X84635949Y-78859715D01*
X84630434Y-78825268D01*
X84744163Y-78825268D01*
X84744234Y-78828422D01*
X84744484Y-78833058D01*
X84744931Y-78839328D01*
X84745590Y-78847387D01*
X84746478Y-78857389D01*
X84747611Y-78869488D01*
X84749007Y-78883838D01*
X84750680Y-78900593D01*
X84752648Y-78919907D01*
X84754928Y-78941934D01*
X84757535Y-78966829D01*
X84760486Y-78994744D01*
X84763797Y-79025835D01*
X84767486Y-79060255D01*
X84771568Y-79098159D01*
X84776060Y-79139699D01*
X84780978Y-79185032D01*
X84786339Y-79234309D01*
X84792159Y-79287686D01*
X84798454Y-79345317D01*
X84805242Y-79407355D01*
X84812538Y-79473955D01*
X84820359Y-79545270D01*
X84828722Y-79621456D01*
X84837642Y-79702664D01*
X84847136Y-79789051D01*
X84857222Y-79880769D01*
X84859254Y-79898941D01*
X84861843Y-79920741D01*
X84864106Y-79937656D01*
X84866132Y-79950045D01*
X84868009Y-79958273D01*
X84869825Y-79962699D01*
X84871669Y-79963687D01*
X84873630Y-79961597D01*
X84875795Y-79956792D01*
X84876264Y-79954560D01*
X84877407Y-79946742D01*
X84879113Y-79933492D01*
X84881378Y-79914842D01*
X84884197Y-79890826D01*
X84887568Y-79861478D01*
X84891486Y-79826830D01*
X84895947Y-79786917D01*
X84900949Y-79741772D01*
X84906487Y-79691427D01*
X84912558Y-79635917D01*
X84919158Y-79575275D01*
X84926283Y-79509535D01*
X84933930Y-79438729D01*
X84942095Y-79362892D01*
X84950774Y-79282056D01*
X84959964Y-79196256D01*
X84969660Y-79105524D01*
X84970519Y-79097480D01*
X84974491Y-79060334D01*
X84978313Y-79024667D01*
X84981941Y-78990879D01*
X84985333Y-78959371D01*
X84988445Y-78930545D01*
X84991234Y-78904801D01*
X84993655Y-78882540D01*
X84995666Y-78864164D01*
X84997223Y-78850073D01*
X84998283Y-78840668D01*
X84998803Y-78836351D01*
X84999128Y-78833685D01*
X84998753Y-78825397D01*
X84995343Y-78819023D01*
X84990287Y-78812839D01*
X84873001Y-78812687D01*
X84859310Y-78812683D01*
X84835039Y-78812741D01*
X84812697Y-78812878D01*
X84792882Y-78813086D01*
X84776192Y-78813356D01*
X84763227Y-78813680D01*
X84754584Y-78814048D01*
X84750862Y-78814452D01*
X84747428Y-78817171D01*
X84744316Y-78823113D01*
X84744255Y-78823440D01*
X84744163Y-78825268D01*
X84630434Y-78825268D01*
X84628087Y-78810610D01*
X84620624Y-78764023D01*
X84613599Y-78720196D01*
X84609165Y-78692554D01*
X84725079Y-78692554D01*
X84725398Y-78700795D01*
X84725668Y-78710591D01*
X84725951Y-78723293D01*
X84727056Y-78737940D01*
X84729249Y-78748448D01*
X84732832Y-78755621D01*
X84738106Y-78760264D01*
X84745371Y-78763181D01*
X84750591Y-78763886D01*
X84761131Y-78764523D01*
X84776601Y-78765060D01*
X84796699Y-78765489D01*
X84821127Y-78765804D01*
X84849584Y-78766000D01*
X84881770Y-78766069D01*
X85007825Y-78766085D01*
X85013756Y-78758545D01*
X85015150Y-78756679D01*
X85017189Y-78753011D01*
X85018433Y-78748363D01*
X85019022Y-78741602D01*
X85019094Y-78731593D01*
X85018785Y-78717204D01*
X85018423Y-78704910D01*
X85017897Y-78694450D01*
X85017047Y-78687432D01*
X85015642Y-78682729D01*
X85013449Y-78679215D01*
X85010234Y-78675760D01*
X85002584Y-78668116D01*
X84869297Y-78667351D01*
X84842545Y-78667158D01*
X84814744Y-78666919D01*
X84791670Y-78666797D01*
X84772889Y-78666924D01*
X84757965Y-78667429D01*
X84746467Y-78668444D01*
X84737958Y-78670100D01*
X84732006Y-78672526D01*
X84728176Y-78675854D01*
X84726034Y-78680214D01*
X84725147Y-78685737D01*
X84725079Y-78692554D01*
X84609165Y-78692554D01*
X84607051Y-78679375D01*
X84601018Y-78641804D01*
X84595540Y-78607728D01*
X84592223Y-78587125D01*
X84750728Y-78587125D01*
X84750828Y-78603160D01*
X84753235Y-78614238D01*
X84757958Y-78620414D01*
X84758395Y-78620548D01*
X84763265Y-78620999D01*
X84772869Y-78621414D01*
X84786594Y-78621781D01*
X84803832Y-78622088D01*
X84823970Y-78622325D01*
X84846397Y-78622479D01*
X84870504Y-78622540D01*
X84880161Y-78622549D01*
X84907249Y-78622605D01*
X84929453Y-78622597D01*
X84947256Y-78622387D01*
X84961138Y-78621837D01*
X84971582Y-78620809D01*
X84979070Y-78619164D01*
X84984084Y-78616765D01*
X84987106Y-78613473D01*
X84988617Y-78609151D01*
X84989100Y-78603661D01*
X84989036Y-78596864D01*
X84988908Y-78588622D01*
X84988872Y-78581295D01*
X84988525Y-78572186D01*
X84987570Y-78566582D01*
X84985723Y-78563209D01*
X84982698Y-78560788D01*
X84980272Y-78560046D01*
X84972543Y-78559071D01*
X84960555Y-78558248D01*
X84945060Y-78557579D01*
X84926809Y-78557064D01*
X84906555Y-78556705D01*
X84885049Y-78556501D01*
X84863043Y-78556453D01*
X84841289Y-78556563D01*
X84820539Y-78556831D01*
X84801546Y-78557258D01*
X84785060Y-78557844D01*
X84771834Y-78558590D01*
X84762620Y-78559498D01*
X84758170Y-78560567D01*
X84755881Y-78562408D01*
X84753486Y-78566494D01*
X84751964Y-78573379D01*
X84750901Y-78584423D01*
X84750728Y-78587125D01*
X84592223Y-78587125D01*
X84590656Y-78577392D01*
X84586405Y-78551039D01*
X84582826Y-78528914D01*
X84579957Y-78511262D01*
X84577839Y-78498327D01*
X84576509Y-78490355D01*
X84576007Y-78487588D01*
X84573952Y-78487588D01*
X84573876Y-78488010D01*
X84573362Y-78492791D01*
X84572425Y-78502633D01*
X84571091Y-78517214D01*
X84569390Y-78536214D01*
X84567348Y-78559310D01*
X84564994Y-78586181D01*
X84562356Y-78616507D01*
X84559462Y-78649966D01*
X84556340Y-78686237D01*
X84553017Y-78724998D01*
X84549523Y-78765929D01*
X84545884Y-78808708D01*
X84542128Y-78853014D01*
X84540893Y-78867610D01*
X84537154Y-78911722D01*
X84533532Y-78954339D01*
X84530057Y-78995128D01*
X84526757Y-79033755D01*
X84523662Y-79069885D01*
X84520799Y-79103186D01*
X84518199Y-79133323D01*
X84515889Y-79159962D01*
X84513898Y-79182771D01*
X84512255Y-79201415D01*
X84510989Y-79215560D01*
X84510129Y-79224873D01*
X84509704Y-79229019D01*
X84509655Y-79229367D01*
X84507552Y-79237302D01*
X84504673Y-79240479D01*
X84501739Y-79238703D01*
X84499472Y-79231779D01*
X84499457Y-79231691D01*
X84498878Y-79227666D01*
X84497604Y-79218462D01*
X84495672Y-79204350D01*
X84493119Y-79185598D01*
X84489981Y-79162478D01*
X84486294Y-79135259D01*
X84482095Y-79104212D01*
X84477421Y-79069607D01*
X84472308Y-79031713D01*
X84466792Y-78990803D01*
X84460910Y-78947144D01*
X84454698Y-78901008D01*
X84448193Y-78852665D01*
X84441431Y-78802384D01*
X84434449Y-78750437D01*
X84427284Y-78697093D01*
X84426616Y-78692120D01*
X84419470Y-78638968D01*
X84412507Y-78587278D01*
X84405764Y-78537318D01*
X84399278Y-78489354D01*
X84394206Y-78451930D01*
X84725196Y-78451930D01*
X84725254Y-78465257D01*
X84726287Y-78477184D01*
X84727931Y-78485567D01*
X84732371Y-78496032D01*
X84739612Y-78502779D01*
X84750469Y-78506807D01*
X84753287Y-78507166D01*
X84761656Y-78507667D01*
X84774502Y-78508126D01*
X84791206Y-78508531D01*
X84811149Y-78508869D01*
X84833709Y-78509130D01*
X84858267Y-78509301D01*
X84884203Y-78509370D01*
X84894206Y-78509373D01*
X84922694Y-78509345D01*
X84946269Y-78509249D01*
X84965393Y-78509072D01*
X84980529Y-78508800D01*
X84992136Y-78508418D01*
X85000678Y-78507914D01*
X85006616Y-78507273D01*
X85010412Y-78506480D01*
X85012527Y-78505524D01*
X85013032Y-78505137D01*
X85015189Y-78502687D01*
X85016676Y-78498762D01*
X85017662Y-78492352D01*
X85018317Y-78482446D01*
X85018811Y-78468031D01*
X85018937Y-78462330D01*
X85018859Y-78445907D01*
X85018037Y-78433822D01*
X85016504Y-78426645D01*
X85016050Y-78425566D01*
X85014482Y-78422386D01*
X85012444Y-78419723D01*
X85009475Y-78417533D01*
X85005118Y-78415769D01*
X84998913Y-78414385D01*
X84990401Y-78413335D01*
X84979124Y-78412572D01*
X84964623Y-78412052D01*
X84946437Y-78411727D01*
X84924110Y-78411552D01*
X84897181Y-78411481D01*
X84865191Y-78411467D01*
X84861632Y-78411467D01*
X84831888Y-78411481D01*
X84807139Y-78411529D01*
X84786910Y-78411629D01*
X84770728Y-78411799D01*
X84758118Y-78412055D01*
X84748609Y-78412416D01*
X84741725Y-78412899D01*
X84736993Y-78413520D01*
X84733939Y-78414298D01*
X84732090Y-78415250D01*
X84730972Y-78416393D01*
X84729691Y-78418886D01*
X84727533Y-78427212D01*
X84725995Y-78438738D01*
X84725196Y-78451930D01*
X84394206Y-78451930D01*
X84393085Y-78443655D01*
X84387220Y-78400487D01*
X84381723Y-78360117D01*
X84376627Y-78322813D01*
X84371971Y-78288842D01*
X84367790Y-78258471D01*
X84364122Y-78231968D01*
X84361003Y-78209598D01*
X84358469Y-78191631D01*
X84356556Y-78178333D01*
X84355303Y-78169971D01*
X84354744Y-78166812D01*
X84353747Y-78166699D01*
X84350841Y-78169254D01*
X84345927Y-78175021D01*
X84338832Y-78184232D01*
X84329384Y-78197118D01*
X84317410Y-78213912D01*
X84302737Y-78234845D01*
X84285192Y-78260150D01*
X84217580Y-78358052D01*
X84216984Y-78328186D01*
X84215937Y-78283019D01*
X84214044Y-78221050D01*
X84211661Y-78159780D01*
X84208835Y-78100171D01*
X84205613Y-78043187D01*
X84202042Y-77989790D01*
X84198168Y-77940943D01*
X84196726Y-77924629D01*
X84180167Y-77769212D01*
X84158705Y-77616292D01*
X84132318Y-77465797D01*
X84100988Y-77317653D01*
X84064691Y-77171788D01*
X84023408Y-77028127D01*
X83977118Y-76886598D01*
X83925799Y-76747128D01*
X83869431Y-76609643D01*
X83807993Y-76474070D01*
X83741464Y-76340335D01*
X83741302Y-76340022D01*
X83733028Y-76324117D01*
X83727806Y-76314109D01*
X83772362Y-76314109D01*
X83772440Y-76314586D01*
X83774366Y-76318861D01*
X83778483Y-76326957D01*
X83784416Y-76338163D01*
X83791792Y-76351769D01*
X83800235Y-76367063D01*
X83848926Y-76457500D01*
X83912028Y-76584725D01*
X83970283Y-76714560D01*
X84023677Y-76846957D01*
X84072193Y-76981871D01*
X84115817Y-77119255D01*
X84154532Y-77259064D01*
X84188324Y-77401251D01*
X84217177Y-77545769D01*
X84241076Y-77692573D01*
X84243803Y-77711715D01*
X84251027Y-77765542D01*
X84257738Y-77820075D01*
X84263761Y-77873791D01*
X84268922Y-77925166D01*
X84273048Y-77972680D01*
X84273693Y-77980792D01*
X84275078Y-77997706D01*
X84276329Y-78012320D01*
X84277376Y-78023834D01*
X84278145Y-78031447D01*
X84278566Y-78034357D01*
X84280849Y-78034763D01*
X84286836Y-78032961D01*
X84295067Y-78029123D01*
X84304252Y-78023868D01*
X84313099Y-78017813D01*
X84325664Y-78008952D01*
X84339292Y-78001521D01*
X84352100Y-77997461D01*
X84365474Y-77996197D01*
X84369951Y-77996244D01*
X84376682Y-77996688D01*
X84383593Y-77997797D01*
X84391371Y-77999814D01*
X84400704Y-78002978D01*
X84412279Y-78007533D01*
X84426783Y-78013718D01*
X84444904Y-78021775D01*
X84467330Y-78031945D01*
X84473044Y-78034545D01*
X84495771Y-78044810D01*
X84521221Y-78056213D01*
X84547569Y-78067939D01*
X84572989Y-78079177D01*
X84595655Y-78089112D01*
X84608953Y-78094906D01*
X84637378Y-78107296D01*
X84661316Y-78117748D01*
X84681169Y-78126456D01*
X84697341Y-78133613D01*
X84710233Y-78139412D01*
X84720248Y-78144045D01*
X84727788Y-78147707D01*
X84733255Y-78150590D01*
X84737052Y-78152887D01*
X84739582Y-78154792D01*
X84741246Y-78156496D01*
X84742448Y-78158193D01*
X84743588Y-78160077D01*
X84744904Y-78162468D01*
X84746384Y-78166393D01*
X84747439Y-78171644D01*
X84748139Y-78179060D01*
X84748553Y-78189479D01*
X84748752Y-78203740D01*
X84748806Y-78222681D01*
X84748858Y-78236395D01*
X84749097Y-78258337D01*
X84749496Y-78280650D01*
X84750018Y-78301370D01*
X84750625Y-78318535D01*
X84752434Y-78360324D01*
X84760974Y-78361663D01*
X84764151Y-78362049D01*
X84773889Y-78362706D01*
X84787469Y-78363208D01*
X84804171Y-78363559D01*
X84823275Y-78363767D01*
X84844060Y-78363839D01*
X84865807Y-78363782D01*
X84887795Y-78363603D01*
X84909305Y-78363308D01*
X84929617Y-78362905D01*
X84948009Y-78362399D01*
X84963764Y-78361799D01*
X84976159Y-78361111D01*
X84984475Y-78360342D01*
X84987993Y-78359498D01*
X84988029Y-78359450D01*
X84988591Y-78355916D01*
X84989184Y-78347528D01*
X84989785Y-78334911D01*
X84990372Y-78318688D01*
X84990921Y-78299484D01*
X84991410Y-78277924D01*
X84991816Y-78254630D01*
X84991844Y-78252754D01*
X84992204Y-78229662D01*
X84992562Y-78208420D01*
X84992905Y-78189641D01*
X84993221Y-78173934D01*
X84993498Y-78161912D01*
X84993724Y-78154187D01*
X84993886Y-78151368D01*
X84994359Y-78151109D01*
X84998095Y-78150678D01*
X85001282Y-78149652D01*
X85009000Y-78146595D01*
X85020678Y-78141748D01*
X85035770Y-78135348D01*
X85053731Y-78127636D01*
X85074014Y-78118850D01*
X85096073Y-78109230D01*
X85119364Y-78099016D01*
X85143341Y-78088446D01*
X85167457Y-78077760D01*
X85191168Y-78067197D01*
X85213927Y-78056997D01*
X85235189Y-78047399D01*
X85254408Y-78038642D01*
X85271039Y-78030966D01*
X85277778Y-78027853D01*
X85295255Y-78019991D01*
X85311768Y-78012847D01*
X85326313Y-78006841D01*
X85337887Y-78002389D01*
X85345490Y-77999910D01*
X85352097Y-77998418D01*
X85372098Y-77996730D01*
X85390990Y-77999878D01*
X85409510Y-78008052D01*
X85428394Y-78021444D01*
X85434676Y-78026127D01*
X85442862Y-78030845D01*
X85449070Y-78032874D01*
X85456629Y-78033392D01*
X85459989Y-77993377D01*
X85469260Y-77893809D01*
X85484252Y-77764086D01*
X85502284Y-77638106D01*
X85523464Y-77515308D01*
X85547900Y-77395130D01*
X85575698Y-77277007D01*
X85606968Y-77160380D01*
X85641817Y-77044684D01*
X85658139Y-76994680D01*
X85695304Y-76889245D01*
X85736148Y-76783648D01*
X85780198Y-76678993D01*
X85826977Y-76576387D01*
X85876010Y-76476934D01*
X85926824Y-76381738D01*
X85928877Y-76378038D01*
X85940021Y-76357623D01*
X85948311Y-76341763D01*
X85953803Y-76330344D01*
X85956552Y-76323253D01*
X85956612Y-76320378D01*
X85956135Y-76320090D01*
X85951550Y-76318619D01*
X85945341Y-76318892D01*
X85936880Y-76321116D01*
X85925534Y-76325494D01*
X85910676Y-76332233D01*
X85891674Y-76341537D01*
X85871508Y-76351751D01*
X85847309Y-76364467D01*
X85825589Y-76376558D01*
X85804841Y-76388901D01*
X85783559Y-76402370D01*
X85760235Y-76417838D01*
X85727239Y-76441075D01*
X85672005Y-76484359D01*
X85617231Y-76532771D01*
X85563187Y-76586067D01*
X85510144Y-76644003D01*
X85500039Y-76655743D01*
X85483713Y-76675262D01*
X85467152Y-76695666D01*
X85450732Y-76716442D01*
X85434831Y-76737077D01*
X85419826Y-76757061D01*
X85406095Y-76775880D01*
X85394014Y-76793022D01*
X85383961Y-76807976D01*
X85376313Y-76820230D01*
X85371448Y-76829270D01*
X85369742Y-76834586D01*
X85370108Y-76840198D01*
X85371013Y-76842595D01*
X85372397Y-76842293D01*
X85378395Y-76840473D01*
X85388215Y-76837270D01*
X85400986Y-76832985D01*
X85415838Y-76827921D01*
X85431901Y-76822381D01*
X85448305Y-76816666D01*
X85464178Y-76811079D01*
X85478652Y-76805923D01*
X85490854Y-76801499D01*
X85499916Y-76798111D01*
X85504966Y-76796060D01*
X85517408Y-76791414D01*
X85527766Y-76790382D01*
X85534551Y-76793494D01*
X85537655Y-76800630D01*
X85536970Y-76811668D01*
X85532385Y-76826488D01*
X85531412Y-76829330D01*
X85528836Y-76837564D01*
X85524929Y-76850458D01*
X85519802Y-76867635D01*
X85513563Y-76888722D01*
X85506324Y-76913343D01*
X85498194Y-76941123D01*
X85489283Y-76971687D01*
X85479701Y-77004660D01*
X85469558Y-77039668D01*
X85458963Y-77076335D01*
X85448027Y-77114286D01*
X85435806Y-77156757D01*
X85417474Y-77220476D01*
X85400573Y-77279228D01*
X85385040Y-77333221D01*
X85370813Y-77382663D01*
X85357830Y-77427759D01*
X85346028Y-77468717D01*
X85335346Y-77505745D01*
X85325720Y-77539048D01*
X85317089Y-77568834D01*
X85309391Y-77595311D01*
X85302563Y-77618684D01*
X85296544Y-77639162D01*
X85291270Y-77656951D01*
X85286679Y-77672258D01*
X85282710Y-77685290D01*
X85279300Y-77696254D01*
X85276387Y-77705358D01*
X85273908Y-77712807D01*
X85271802Y-77718810D01*
X85270006Y-77723573D01*
X85268458Y-77727303D01*
X85267095Y-77730208D01*
X85265856Y-77732494D01*
X85264678Y-77734368D01*
X85263499Y-77736038D01*
X85262257Y-77737710D01*
X85260889Y-77739591D01*
X85259333Y-77741888D01*
X85252933Y-77750944D01*
X85235173Y-77769676D01*
X85213926Y-77784194D01*
X85188984Y-77794654D01*
X85187563Y-77795139D01*
X85179864Y-77798218D01*
X85168841Y-77803035D01*
X85155748Y-77809029D01*
X85141842Y-77815642D01*
X85135702Y-77818584D01*
X85112452Y-77828917D01*
X85092991Y-77836081D01*
X85076841Y-77840235D01*
X85063529Y-77841535D01*
X85057163Y-77841000D01*
X85042357Y-77836086D01*
X85028293Y-77826533D01*
X85015746Y-77812948D01*
X85005488Y-77795941D01*
X85002745Y-77790444D01*
X84999125Y-77783945D01*
X84996847Y-77780819D01*
X84996406Y-77779262D01*
X84995773Y-77772481D01*
X84995166Y-77760552D01*
X84994586Y-77743699D01*
X84994035Y-77722143D01*
X84993513Y-77696107D01*
X84993022Y-77665812D01*
X84992564Y-77631481D01*
X84992140Y-77593337D01*
X84991752Y-77551600D01*
X84991400Y-77506494D01*
X84991086Y-77458241D01*
X84990812Y-77407062D01*
X84990579Y-77353180D01*
X84990389Y-77296817D01*
X84990242Y-77238196D01*
X84990140Y-77177538D01*
X84990085Y-77115065D01*
X84990078Y-77051000D01*
X84990121Y-76985565D01*
X84990214Y-76918983D01*
X84990360Y-76851474D01*
X84990559Y-76783262D01*
X84990599Y-76771136D01*
X84990782Y-76717360D01*
X84990968Y-76665126D01*
X84991154Y-76614700D01*
X84991341Y-76566346D01*
X84991526Y-76520329D01*
X84991708Y-76476915D01*
X84991886Y-76436369D01*
X84992059Y-76398956D01*
X84992225Y-76364941D01*
X84992384Y-76334589D01*
X84992533Y-76308166D01*
X84992673Y-76285936D01*
X84992801Y-76268165D01*
X84992916Y-76255118D01*
X84993017Y-76247060D01*
X84993103Y-76244256D01*
X84993635Y-76244178D01*
X84997954Y-76245701D01*
X85005715Y-76249379D01*
X85015968Y-76254708D01*
X85027766Y-76261187D01*
X85040159Y-76268312D01*
X85052200Y-76275580D01*
X85058996Y-76279933D01*
X85071595Y-76288356D01*
X85086378Y-76298536D01*
X85102030Y-76309565D01*
X85117232Y-76320530D01*
X85123907Y-76325389D01*
X85137582Y-76335128D01*
X85147538Y-76341811D01*
X85154210Y-76345701D01*
X85158029Y-76347063D01*
X85159432Y-76346158D01*
X85159188Y-76342244D01*
X85157949Y-76333554D01*
X85155841Y-76320851D01*
X85152996Y-76304842D01*
X85149551Y-76286233D01*
X85145640Y-76265731D01*
X85141399Y-76244044D01*
X85136961Y-76221878D01*
X85132463Y-76199940D01*
X85128038Y-76178937D01*
X85123823Y-76159577D01*
X85120282Y-76143789D01*
X85091115Y-76024068D01*
X85058870Y-75908902D01*
X85023537Y-75798262D01*
X84985107Y-75692118D01*
X84943568Y-75590442D01*
X84898912Y-75493203D01*
X84872782Y-75439476D01*
X84864162Y-75454568D01*
X84860698Y-75460954D01*
X84854461Y-75473217D01*
X84846736Y-75488985D01*
X84837938Y-75507372D01*
X84828482Y-75527495D01*
X84818783Y-75548468D01*
X84809256Y-75569406D01*
X84800314Y-75589426D01*
X84792374Y-75607643D01*
X84790287Y-75612519D01*
X84747352Y-75718331D01*
X84709346Y-75823336D01*
X84675991Y-75928476D01*
X84647008Y-76034692D01*
X84622119Y-76142925D01*
X84601045Y-76254117D01*
X84600502Y-76257311D01*
X84596785Y-76279912D01*
X84594135Y-76297818D01*
X84592509Y-76311664D01*
X84591865Y-76322081D01*
X84592162Y-76329702D01*
X84593357Y-76335159D01*
X84595409Y-76339087D01*
X84597759Y-76341827D01*
X84600331Y-76342378D01*
X84604365Y-76340157D01*
X84611252Y-76334785D01*
X84617418Y-76329870D01*
X84634944Y-76316374D01*
X84653521Y-76302661D01*
X84672378Y-76289251D01*
X84690748Y-76276663D01*
X84707862Y-76265417D01*
X84722953Y-76256034D01*
X84735250Y-76249035D01*
X84743987Y-76244938D01*
X84744122Y-76244900D01*
X84744600Y-76245019D01*
X84745045Y-76245695D01*
X84745458Y-76247117D01*
X84745839Y-76249477D01*
X84746191Y-76252966D01*
X84746513Y-76257775D01*
X84746808Y-76264094D01*
X84747077Y-76272115D01*
X84747321Y-76282028D01*
X84747540Y-76294024D01*
X84747737Y-76308295D01*
X84747913Y-76325030D01*
X84748068Y-76344421D01*
X84748205Y-76366659D01*
X84748323Y-76391935D01*
X84748425Y-76420439D01*
X84748511Y-76452363D01*
X84748583Y-76487898D01*
X84748642Y-76527233D01*
X84748689Y-76570561D01*
X84748726Y-76618071D01*
X84748753Y-76669956D01*
X84748773Y-76726406D01*
X84748785Y-76787611D01*
X84748792Y-76853763D01*
X84748794Y-76925053D01*
X84748792Y-77001671D01*
X84748792Y-77016091D01*
X84748780Y-77080320D01*
X84748757Y-77143143D01*
X84748723Y-77204333D01*
X84748677Y-77263661D01*
X84748621Y-77320897D01*
X84748555Y-77375815D01*
X84748480Y-77428184D01*
X84748395Y-77477776D01*
X84748302Y-77524364D01*
X84748202Y-77567718D01*
X84748094Y-77607609D01*
X84747979Y-77643810D01*
X84747858Y-77676092D01*
X84747731Y-77704225D01*
X84747599Y-77727982D01*
X84747462Y-77747134D01*
X84747321Y-77761452D01*
X84747176Y-77770708D01*
X84747028Y-77774673D01*
X84746319Y-77779382D01*
X84744289Y-77786560D01*
X84741820Y-77789162D01*
X84739379Y-77790587D01*
X84734750Y-77795619D01*
X84729454Y-77803029D01*
X84716810Y-77819578D01*
X84702562Y-77831621D01*
X84686726Y-77838663D01*
X84668942Y-77840803D01*
X84648848Y-77838137D01*
X84626084Y-77830762D01*
X84621260Y-77828804D01*
X84604308Y-77821603D01*
X84585995Y-77813411D01*
X84567124Y-77804627D01*
X84548497Y-77795649D01*
X84530919Y-77786876D01*
X84515191Y-77778706D01*
X84502118Y-77771539D01*
X84492501Y-77765772D01*
X84487145Y-77761804D01*
X84486674Y-77761338D01*
X84484606Y-77759303D01*
X84482668Y-77757296D01*
X84480789Y-77755096D01*
X84478901Y-77752480D01*
X84476934Y-77749226D01*
X84474818Y-77745112D01*
X84472484Y-77739917D01*
X84469864Y-77733417D01*
X84466886Y-77725392D01*
X84463482Y-77715619D01*
X84459583Y-77703875D01*
X84455118Y-77689939D01*
X84450019Y-77673590D01*
X84444216Y-77654603D01*
X84437640Y-77632759D01*
X84430221Y-77607834D01*
X84421890Y-77579606D01*
X84412578Y-77547854D01*
X84402214Y-77512356D01*
X84390730Y-77472889D01*
X84378055Y-77429231D01*
X84364122Y-77381160D01*
X84348860Y-77328455D01*
X84332199Y-77270892D01*
X84314071Y-77208251D01*
X84308308Y-77188337D01*
X84292862Y-77134956D01*
X84278861Y-77086547D01*
X84266234Y-77042867D01*
X84254915Y-77003673D01*
X84244833Y-76968721D01*
X84235920Y-76937767D01*
X84228108Y-76910569D01*
X84221327Y-76886882D01*
X84215510Y-76866464D01*
X84210586Y-76849071D01*
X84206489Y-76834458D01*
X84203148Y-76822384D01*
X84200495Y-76812605D01*
X84198461Y-76804876D01*
X84196979Y-76798955D01*
X84195978Y-76794599D01*
X84195390Y-76791563D01*
X84195147Y-76789604D01*
X84195179Y-76788479D01*
X84195419Y-76787945D01*
X84196899Y-76788154D01*
X84203025Y-76789851D01*
X84213318Y-76793014D01*
X84227161Y-76797445D01*
X84243938Y-76802945D01*
X84263033Y-76809317D01*
X84283828Y-76816362D01*
X84298580Y-76821364D01*
X84318272Y-76827937D01*
X84335844Y-76833682D01*
X84350678Y-76838402D01*
X84362154Y-76841903D01*
X84369654Y-76843987D01*
X84372558Y-76844458D01*
X84372627Y-76844263D01*
X84371413Y-76840670D01*
X84367865Y-76833486D01*
X84362466Y-76823638D01*
X84355700Y-76812057D01*
X84351756Y-76805569D01*
X84323434Y-76762697D01*
X84290778Y-76718838D01*
X84254380Y-76674542D01*
X84214831Y-76630361D01*
X84172724Y-76586844D01*
X84128651Y-76544544D01*
X84083203Y-76504010D01*
X84036972Y-76465794D01*
X83990551Y-76430446D01*
X83944531Y-76398517D01*
X83899504Y-76370559D01*
X83856063Y-76347122D01*
X83855393Y-76346791D01*
X83839234Y-76339071D01*
X83823149Y-76331833D01*
X83807952Y-76325397D01*
X83794460Y-76320085D01*
X83783488Y-76316219D01*
X83775850Y-76314120D01*
X83772362Y-76314109D01*
X83727806Y-76314109D01*
X83726167Y-76310968D01*
X83720262Y-76299737D01*
X83714852Y-76289583D01*
X83709479Y-76279666D01*
X83703683Y-76269146D01*
X83697006Y-76257183D01*
X83688988Y-76242936D01*
X83679171Y-76225565D01*
X83667094Y-76204231D01*
X83662216Y-76195578D01*
X83653933Y-76180714D01*
X83646914Y-76167890D01*
X83641528Y-76157794D01*
X83638145Y-76151113D01*
X83637134Y-76148534D01*
X83637359Y-76148488D01*
X83641161Y-76149703D01*
X83648974Y-76152981D01*
X83660052Y-76157963D01*
X83673649Y-76164293D01*
X83689020Y-76171612D01*
X83705418Y-76179563D01*
X83722098Y-76187788D01*
X83738315Y-76195929D01*
X83753322Y-76203629D01*
X83766374Y-76210530D01*
X83792202Y-76224648D01*
X83860250Y-76263793D01*
X83923820Y-76303464D01*
X83983673Y-76344220D01*
X84040571Y-76386618D01*
X84095275Y-76431216D01*
X84148546Y-76478574D01*
X84201147Y-76529248D01*
X84231918Y-76560680D01*
X84283285Y-76616637D01*
X84330655Y-76673182D01*
X84374923Y-76731457D01*
X84416980Y-76792606D01*
X84457721Y-76857773D01*
X84458546Y-76859157D01*
X84467009Y-76873625D01*
X84475885Y-76889236D01*
X84484780Y-76905250D01*
X84493300Y-76920925D01*
X84501049Y-76935518D01*
X84507634Y-76948288D01*
X84512661Y-76958494D01*
X84515734Y-76965393D01*
X84516460Y-76968244D01*
X84515472Y-76968015D01*
X84510093Y-76965958D01*
X84500509Y-76961992D01*
X84487244Y-76956343D01*
X84470820Y-76949237D01*
X84451761Y-76940899D01*
X84430589Y-76931553D01*
X84407828Y-76921427D01*
X84394366Y-76915424D01*
X84372490Y-76905712D01*
X84352521Y-76896898D01*
X84334982Y-76889210D01*
X84320392Y-76882875D01*
X84309274Y-76878120D01*
X84302148Y-76875172D01*
X84299536Y-76874258D01*
X84300130Y-76876553D01*
X84302411Y-76883487D01*
X84306195Y-76894472D01*
X84311275Y-76908921D01*
X84317444Y-76926243D01*
X84324493Y-76945850D01*
X84332217Y-76967154D01*
X84332737Y-76968583D01*
X84361444Y-77048652D01*
X84387744Y-77124495D01*
X84411833Y-77196744D01*
X84433907Y-77266027D01*
X84454161Y-77332974D01*
X84472792Y-77398215D01*
X84489994Y-77462379D01*
X84505965Y-77526096D01*
X84512563Y-77553271D01*
X84518430Y-77577184D01*
X84523355Y-77596855D01*
X84527502Y-77612862D01*
X84531035Y-77625787D01*
X84534118Y-77636208D01*
X84536918Y-77644705D01*
X84539597Y-77651858D01*
X84542321Y-77658246D01*
X84545255Y-77664449D01*
X84552084Y-77676470D01*
X84568069Y-77696131D01*
X84588420Y-77712855D01*
X84612791Y-77726379D01*
X84640837Y-77736445D01*
X84641763Y-77736701D01*
X84651646Y-77739257D01*
X84657698Y-77740222D01*
X84661252Y-77739666D01*
X84663639Y-77737659D01*
X84663768Y-77737404D01*
X84664173Y-77735181D01*
X84664561Y-77730682D01*
X84664934Y-77723728D01*
X84665293Y-77714137D01*
X84665642Y-77701731D01*
X84665982Y-77686329D01*
X84666315Y-77667750D01*
X84666643Y-77645815D01*
X84666969Y-77620342D01*
X84667293Y-77591153D01*
X84667619Y-77558066D01*
X84667948Y-77520901D01*
X84668283Y-77479479D01*
X84668625Y-77433619D01*
X84668976Y-77383141D01*
X84669339Y-77327864D01*
X84669716Y-77267609D01*
X84670108Y-77202194D01*
X84670517Y-77131441D01*
X84670657Y-77106923D01*
X84671089Y-77031681D01*
X84671492Y-76961709D01*
X84671865Y-76896818D01*
X84672210Y-76836816D01*
X84672524Y-76781514D01*
X84672808Y-76730722D01*
X84673062Y-76684250D01*
X84673285Y-76641908D01*
X84673476Y-76603505D01*
X84673636Y-76568852D01*
X84673763Y-76537758D01*
X84673858Y-76510034D01*
X84673920Y-76485489D01*
X84673949Y-76463933D01*
X84673944Y-76445177D01*
X84673905Y-76429030D01*
X84673832Y-76415302D01*
X84673723Y-76403803D01*
X84673580Y-76394344D01*
X84673400Y-76386733D01*
X84673185Y-76380781D01*
X84672934Y-76376298D01*
X84672645Y-76373094D01*
X84672320Y-76370979D01*
X84671956Y-76369762D01*
X84671555Y-76369254D01*
X84671116Y-76369265D01*
X84670638Y-76369604D01*
X84670121Y-76370081D01*
X84669564Y-76370507D01*
X84668967Y-76370691D01*
X84668755Y-76370726D01*
X84664951Y-76372911D01*
X84657501Y-76378220D01*
X84646902Y-76386265D01*
X84633650Y-76396658D01*
X84618242Y-76409010D01*
X84601173Y-76422931D01*
X84582941Y-76438034D01*
X84582427Y-76438463D01*
X84563599Y-76454057D01*
X84546317Y-76468149D01*
X84531023Y-76480394D01*
X84518161Y-76490444D01*
X84508173Y-76497954D01*
X84501502Y-76502579D01*
X84498590Y-76503971D01*
X84497577Y-76503415D01*
X84496175Y-76501444D01*
X84495399Y-76497723D01*
X84495277Y-76491632D01*
X84495838Y-76482553D01*
X84497109Y-76469867D01*
X84499119Y-76452957D01*
X84501895Y-76431203D01*
X84509263Y-76377479D01*
X84529707Y-76251468D01*
X84554173Y-76128943D01*
X84582748Y-76009607D01*
X84615519Y-75893162D01*
X84652575Y-75779311D01*
X84694002Y-75667755D01*
X84739888Y-75558198D01*
X84790321Y-75450341D01*
X84793453Y-75444002D01*
X84803910Y-75423109D01*
X84814643Y-75402032D01*
X84825311Y-75381412D01*
X84835573Y-75361889D01*
X84845087Y-75344104D01*
X84853511Y-75328699D01*
X84860503Y-75316313D01*
X84865721Y-75307588D01*
X84868823Y-75303164D01*
X84870070Y-75302538D01*
X84872405Y-75303661D01*
X84875867Y-75307505D01*
X84880849Y-75314593D01*
X84887744Y-75325449D01*
X84896944Y-75340596D01*
X84922113Y-75384564D01*
X84948998Y-75435804D01*
X84975996Y-75491454D01*
X85002894Y-75550957D01*
X85029477Y-75613756D01*
X85055532Y-75679295D01*
X85080843Y-75747016D01*
X85105196Y-75816364D01*
X85128379Y-75886781D01*
X85150175Y-75957711D01*
X85170371Y-76028596D01*
X85188753Y-76098881D01*
X85202743Y-76157515D01*
X85216657Y-76222826D01*
X85228216Y-76286053D01*
X85237699Y-76348614D01*
X85238079Y-76351807D01*
X85238954Y-76362520D01*
X85239713Y-76376431D01*
X85240345Y-76392668D01*
X85240841Y-76410361D01*
X85241189Y-76428638D01*
X85241378Y-76446628D01*
X85241399Y-76463460D01*
X85241239Y-76478262D01*
X85240889Y-76490163D01*
X85240338Y-76498291D01*
X85239576Y-76501777D01*
X85239041Y-76501679D01*
X85234783Y-76499309D01*
X85226726Y-76494173D01*
X85215350Y-76486598D01*
X85201139Y-76476911D01*
X85184573Y-76465441D01*
X85166134Y-76452513D01*
X85146304Y-76438454D01*
X85138180Y-76432678D01*
X85118805Y-76419016D01*
X85100985Y-76406609D01*
X85085207Y-76395786D01*
X85071957Y-76386876D01*
X85061722Y-76380208D01*
X85054990Y-76376110D01*
X85052248Y-76374913D01*
X85052053Y-76375282D01*
X85051446Y-76379979D01*
X85050908Y-76389749D01*
X85050447Y-76404245D01*
X85050069Y-76423126D01*
X85049782Y-76446046D01*
X85049593Y-76472662D01*
X85049510Y-76502628D01*
X85049478Y-76518920D01*
X85049331Y-76551495D01*
X85049082Y-76587534D01*
X85048743Y-76625719D01*
X85048329Y-76664734D01*
X85047853Y-76703264D01*
X85047327Y-76739992D01*
X85046766Y-76773603D01*
X85046494Y-76791910D01*
X85046261Y-76815072D01*
X85046079Y-76841974D01*
X85045946Y-76872272D01*
X85045860Y-76905623D01*
X85045820Y-76941685D01*
X85045822Y-76980115D01*
X85045865Y-77020569D01*
X85045947Y-77062705D01*
X85046066Y-77106180D01*
X85046220Y-77150651D01*
X85046406Y-77195775D01*
X85046622Y-77241209D01*
X85046867Y-77286611D01*
X85047139Y-77331636D01*
X85047435Y-77375943D01*
X85047753Y-77419189D01*
X85048091Y-77461030D01*
X85048447Y-77501124D01*
X85048819Y-77539127D01*
X85049205Y-77574698D01*
X85049604Y-77607492D01*
X85050012Y-77637167D01*
X85050427Y-77663381D01*
X85050849Y-77685790D01*
X85051273Y-77704051D01*
X85051700Y-77717821D01*
X85052126Y-77726758D01*
X85052549Y-77730519D01*
X85055219Y-77734373D01*
X85060445Y-77736728D01*
X85063582Y-77736313D01*
X85071887Y-77734317D01*
X85083572Y-77730988D01*
X85097562Y-77726683D01*
X85112786Y-77721760D01*
X85128169Y-77716575D01*
X85142638Y-77711484D01*
X85155119Y-77706846D01*
X85164540Y-77703017D01*
X85169827Y-77700354D01*
X85177757Y-77693682D01*
X85184459Y-77684962D01*
X85190314Y-77673362D01*
X85195762Y-77658008D01*
X85201242Y-77638028D01*
X85214102Y-77587982D01*
X85233365Y-77517375D01*
X85254842Y-77443199D01*
X85278599Y-77365240D01*
X85304705Y-77283283D01*
X85333228Y-77197112D01*
X85364233Y-77106513D01*
X85397790Y-77011271D01*
X85399998Y-77005082D01*
X85408964Y-76979876D01*
X85417269Y-76956403D01*
X85424743Y-76935158D01*
X85431212Y-76916636D01*
X85436505Y-76901331D01*
X85440449Y-76889737D01*
X85442873Y-76882349D01*
X85443605Y-76879662D01*
X85443250Y-76879719D01*
X85439008Y-76881251D01*
X85430415Y-76884643D01*
X85418016Y-76889673D01*
X85402353Y-76896118D01*
X85383971Y-76903754D01*
X85363414Y-76912357D01*
X85341225Y-76921705D01*
X85333602Y-76924921D01*
X85311868Y-76934020D01*
X85291922Y-76942270D01*
X85274312Y-76949452D01*
X85259585Y-76955344D01*
X85248290Y-76959728D01*
X85240974Y-76962382D01*
X85238185Y-76963088D01*
X85238280Y-76962004D01*
X85240330Y-76956710D01*
X85244460Y-76947712D01*
X85250299Y-76935731D01*
X85257472Y-76921486D01*
X85265609Y-76905697D01*
X85274335Y-76889084D01*
X85283279Y-76872368D01*
X85292068Y-76856268D01*
X85300329Y-76841504D01*
X85307689Y-76828797D01*
X85337711Y-76780243D01*
X85385862Y-76709957D01*
X85437815Y-76642740D01*
X85493754Y-76578420D01*
X85553857Y-76516824D01*
X85618309Y-76457780D01*
X85687288Y-76401115D01*
X85760978Y-76346657D01*
X85839560Y-76294233D01*
X85923214Y-76243671D01*
X85930385Y-76239609D01*
X85944531Y-76231847D01*
X85961141Y-76222967D01*
X85979604Y-76213277D01*
X85999307Y-76203082D01*
X86019637Y-76192691D01*
X86039982Y-76182411D01*
X86059728Y-76172547D01*
X86078265Y-76163409D01*
X86094978Y-76155302D01*
X86109255Y-76148533D01*
X86120484Y-76143411D01*
X86128053Y-76140241D01*
X86131347Y-76139332D01*
X86131307Y-76140463D01*
X86129192Y-76145730D01*
X86124878Y-76154672D01*
X86118706Y-76166617D01*
X86111017Y-76180895D01*
X86102154Y-76196832D01*
X86056795Y-76278724D01*
X86034909Y-76320378D01*
X85985489Y-76414434D01*
X85919523Y-76549268D01*
X85858852Y-76683359D01*
X85803432Y-76816842D01*
X85753218Y-76949849D01*
X85708165Y-77082516D01*
X85668230Y-77214976D01*
X85633367Y-77347362D01*
X85603533Y-77479809D01*
X85578683Y-77612450D01*
X85558773Y-77745419D01*
X85543757Y-77878851D01*
X85540775Y-77912514D01*
X85537616Y-77953298D01*
X85534865Y-77994638D01*
X85532535Y-78035982D01*
X85530642Y-78076783D01*
X85529198Y-78116490D01*
X85528218Y-78154553D01*
X85527714Y-78190423D01*
X85527700Y-78223550D01*
X85528191Y-78253385D01*
X85529200Y-78279378D01*
X85530741Y-78300979D01*
X85532826Y-78317638D01*
X85534608Y-78334138D01*
X85533499Y-78352134D01*
X85530912Y-78367312D01*
X85525528Y-78357297D01*
X85524895Y-78356197D01*
X85521168Y-78350253D01*
X85514830Y-78340487D01*
X85506244Y-78327449D01*
X85495772Y-78311684D01*
X85483778Y-78293739D01*
X85470623Y-78274161D01*
X85456672Y-78253496D01*
X85446634Y-78238671D01*
X85432732Y-78218194D01*
X85421449Y-78201695D01*
X85412499Y-78188801D01*
X85405595Y-78179142D01*
X85400453Y-78172346D01*
X85396787Y-78168042D01*
X85394311Y-78165857D01*
X85392738Y-78165419D01*
X85391784Y-78166359D01*
X85391162Y-78168303D01*
X85391153Y-78168346D01*
X85390573Y-78171999D01*
X85389277Y-78180768D01*
X85387312Y-78194331D01*
X85384723Y-78212369D01*
X85381554Y-78234559D01*
X85377850Y-78260583D01*
X85373656Y-78290118D01*
X85369019Y-78322845D01*
X85363981Y-78358443D01*
X85358590Y-78396591D01*
X85352889Y-78436969D01*
X85349312Y-78462330D01*
X85346924Y-78479256D01*
X85340739Y-78523131D01*
G37*
%TD*%
M02*
