%TF.GenerationSoftware,KiCad,Pcbnew,(6.0.1)*%
%TF.CreationDate,2022-03-10T14:05:26-07:00*%
%TF.ProjectId,RFSoC_directclocking,5246536f-435f-4646-9972-656374636c6f,rev?*%
%TF.SameCoordinates,Original*%
%TF.FileFunction,Copper,L1,Top*%
%TF.FilePolarity,Positive*%
%FSLAX46Y46*%
G04 Gerber Fmt 4.6, Leading zero omitted, Abs format (unit mm)*
G04 Created by KiCad (PCBNEW (6.0.1)) date 2022-03-10 14:05:26*
%MOMM*%
%LPD*%
G01*
G04 APERTURE LIST*
G04 Aperture macros list*
%AMRoundRect*
0 Rectangle with rounded corners*
0 $1 Rounding radius*
0 $2 $3 $4 $5 $6 $7 $8 $9 X,Y pos of 4 corners*
0 Add a 4 corners polygon primitive as box body*
4,1,4,$2,$3,$4,$5,$6,$7,$8,$9,$2,$3,0*
0 Add four circle primitives for the rounded corners*
1,1,$1+$1,$2,$3*
1,1,$1+$1,$4,$5*
1,1,$1+$1,$6,$7*
1,1,$1+$1,$8,$9*
0 Add four rect primitives between the rounded corners*
20,1,$1+$1,$2,$3,$4,$5,0*
20,1,$1+$1,$4,$5,$6,$7,0*
20,1,$1+$1,$6,$7,$8,$9,0*
20,1,$1+$1,$8,$9,$2,$3,0*%
G04 Aperture macros list end*
%TA.AperFunction,SMDPad,CuDef*%
%ADD10RoundRect,0.140000X-0.140000X-0.170000X0.140000X-0.170000X0.140000X0.170000X-0.140000X0.170000X0*%
%TD*%
%TA.AperFunction,SMDPad,CuDef*%
%ADD11R,1.500000X5.080000*%
%TD*%
%TA.AperFunction,SMDPad,CuDef*%
%ADD12R,5.080000X1.500000*%
%TD*%
%TA.AperFunction,SMDPad,CuDef*%
%ADD13R,1.650000X0.760000*%
%TD*%
%TA.AperFunction,SMDPad,CuDef*%
%ADD14RoundRect,0.140000X0.140000X0.170000X-0.140000X0.170000X-0.140000X-0.170000X0.140000X-0.170000X0*%
%TD*%
%TA.AperFunction,SMDPad,CuDef*%
%ADD15R,0.850000X0.300000*%
%TD*%
%TA.AperFunction,SMDPad,CuDef*%
%ADD16R,0.300000X0.850000*%
%TD*%
%TA.AperFunction,SMDPad,CuDef*%
%ADD17R,3.600000X3.600000*%
%TD*%
%TA.AperFunction,ViaPad*%
%ADD18C,0.800000*%
%TD*%
%TA.AperFunction,Conductor*%
%ADD19C,0.711200*%
%TD*%
%TA.AperFunction,Conductor*%
%ADD20C,0.813196*%
%TD*%
%TA.AperFunction,Conductor*%
%ADD21C,0.250000*%
%TD*%
G04 APERTURE END LIST*
D10*
%TO.P,C4,1*%
%TO.N,Net-(C4-Pad1)*%
X102550000Y-68961000D03*
%TO.P,C4,2*%
%TO.N,Net-(C4-Pad2)*%
X103510000Y-68961000D03*
%TD*%
D11*
%TO.P,J4,1,In*%
%TO.N,Net-(C5-Pad2)*%
X79232800Y-61087000D03*
%TO.P,J4,2,Ext*%
%TO.N,GND*%
X74982800Y-61087000D03*
X83482800Y-61087000D03*
%TD*%
D12*
%TO.P,J1,1,In*%
%TO.N,Net-(C1-Pad1)*%
X127980750Y-77343000D03*
%TO.P,J1,2,Ext*%
%TO.N,GND*%
X127980750Y-81593000D03*
X127980750Y-73093000D03*
%TD*%
D13*
%TO.P,U1,1,NC*%
%TO.N,unconnected-(U1-Pad1)*%
X102555000Y-83566000D03*
%TO.P,U1,2,1*%
%TO.N,GND*%
X102555000Y-84836000D03*
%TO.P,U1,3,2*%
%TO.N,Net-(C2-Pad1)*%
X102555000Y-86106000D03*
%TO.P,U1,4,2_dot*%
%TO.N,Net-(C3-Pad1)*%
X99375000Y-86106000D03*
%TO.P,U1,5,GND*%
%TO.N,GND*%
X99375000Y-84836000D03*
%TO.P,U1,6,1_dot*%
%TO.N,Net-(U1-Pad6)*%
X99375000Y-83566000D03*
%TD*%
D14*
%TO.P,C5,1*%
%TO.N,Net-(C5-Pad1)*%
X92997000Y-68961000D03*
%TO.P,C5,2*%
%TO.N,Net-(C5-Pad2)*%
X92037000Y-68961000D03*
%TD*%
D15*
%TO.P,U3,1,NC*%
%TO.N,unconnected-(U3-Pad1)*%
X98113250Y-75847000D03*
%TO.P,U3,2,NC*%
%TO.N,unconnected-(U3-Pad2)*%
X98113250Y-76347000D03*
%TO.P,U3,3,NC*%
%TO.N,unconnected-(U3-Pad3)*%
X98113250Y-76847000D03*
%TO.P,U3,4,NC*%
%TO.N,unconnected-(U3-Pad4)*%
X98113250Y-77347000D03*
%TO.P,U3,5,NC*%
%TO.N,unconnected-(U3-Pad5)*%
X98113250Y-77847000D03*
%TO.P,U3,6,NC*%
%TO.N,unconnected-(U3-Pad6)*%
X98113250Y-78347000D03*
%TO.P,U3,7,NC*%
%TO.N,unconnected-(U3-Pad7)*%
X98113250Y-78847000D03*
%TO.P,U3,8,NC*%
%TO.N,unconnected-(U3-Pad8)*%
X98113250Y-79347000D03*
D16*
%TO.P,U3,9,GND*%
%TO.N,GND*%
X98813250Y-80047000D03*
%TO.P,U3,10,RF_OUT_1*%
%TO.N,Net-(U1-Pad6)*%
X99313250Y-80047000D03*
%TO.P,U3,11,GND*%
%TO.N,GND*%
X99813250Y-80047000D03*
%TO.P,U3,12,NC*%
%TO.N,unconnected-(U3-Pad12)*%
X100313250Y-80047000D03*
%TO.P,U3,13,NC*%
%TO.N,unconnected-(U3-Pad13)*%
X100813250Y-80047000D03*
%TO.P,U3,14,NC*%
%TO.N,unconnected-(U3-Pad14)*%
X101313250Y-80047000D03*
%TO.P,U3,15,NC*%
%TO.N,unconnected-(U3-Pad15)*%
X101813250Y-80047000D03*
%TO.P,U3,16,NC*%
%TO.N,unconnected-(U3-Pad16)*%
X102313250Y-80047000D03*
D15*
%TO.P,U3,17,NC*%
%TO.N,unconnected-(U3-Pad17)*%
X103013250Y-79347000D03*
%TO.P,U3,18,NC*%
%TO.N,unconnected-(U3-Pad18)*%
X103013250Y-78847000D03*
%TO.P,U3,19,NC*%
%TO.N,unconnected-(U3-Pad19)*%
X103013250Y-78347000D03*
%TO.P,U3,20,GND*%
%TO.N,GND*%
X103013250Y-77847000D03*
%TO.P,U3,21,RF_IN*%
%TO.N,Net-(C1-Pad2)*%
X103013250Y-77347000D03*
%TO.P,U3,22,GND*%
%TO.N,GND*%
X103013250Y-76847000D03*
%TO.P,U3,23,NC*%
%TO.N,unconnected-(U3-Pad23)*%
X103013250Y-76347000D03*
%TO.P,U3,24,NC*%
%TO.N,unconnected-(U3-Pad24)*%
X103013250Y-75847000D03*
D16*
%TO.P,U3,25,NC*%
%TO.N,unconnected-(U3-Pad25)*%
X102313250Y-75147000D03*
%TO.P,U3,26,NC*%
%TO.N,unconnected-(U3-Pad26)*%
X101813250Y-75147000D03*
%TO.P,U3,27,NC*%
%TO.N,unconnected-(U3-Pad27)*%
X101313250Y-75147000D03*
%TO.P,U3,28,NC*%
%TO.N,unconnected-(U3-Pad28)*%
X100813250Y-75147000D03*
%TO.P,U3,29,NC*%
%TO.N,unconnected-(U3-Pad29)*%
X100313250Y-75147000D03*
%TO.P,U3,30,GND*%
%TO.N,GND*%
X99813250Y-75147000D03*
%TO.P,U3,31,RFOUT2*%
%TO.N,Net-(U2-Pad6)*%
X99313250Y-75147000D03*
%TO.P,U3,32,GND*%
%TO.N,GND*%
X98813250Y-75147000D03*
D17*
%TO.P,U3,33*%
%TO.N,N/C*%
X100563250Y-77597000D03*
%TD*%
D13*
%TO.P,U2,1,NC*%
%TO.N,unconnected-(U2-Pad1)*%
X96134000Y-71501000D03*
%TO.P,U2,2,1*%
%TO.N,GND*%
X96134000Y-70231000D03*
%TO.P,U2,3,2*%
%TO.N,Net-(C5-Pad1)*%
X96134000Y-68961000D03*
%TO.P,U2,4,2_dot*%
%TO.N,Net-(C4-Pad1)*%
X99314000Y-68961000D03*
%TO.P,U2,5,GND*%
%TO.N,GND*%
X99314000Y-70231000D03*
%TO.P,U2,6,1_dot*%
%TO.N,Net-(U2-Pad6)*%
X99314000Y-71501000D03*
%TD*%
D11*
%TO.P,J3,1,In*%
%TO.N,Net-(C2-Pad2)*%
X119634000Y-93980000D03*
%TO.P,J3,2,Ext*%
%TO.N,GND*%
X123884000Y-93980000D03*
X115384000Y-93980000D03*
%TD*%
D10*
%TO.P,C2,1*%
%TO.N,Net-(C2-Pad1)*%
X105692000Y-86106000D03*
%TO.P,C2,2*%
%TO.N,Net-(C2-Pad2)*%
X106652000Y-86106000D03*
%TD*%
D11*
%TO.P,J5,1,In*%
%TO.N,Net-(C4-Pad2)*%
X116621600Y-61087000D03*
%TO.P,J5,2,Ext*%
%TO.N,GND*%
X112371600Y-61087000D03*
X120871600Y-61087000D03*
%TD*%
D14*
%TO.P,C1,1*%
%TO.N,Net-(C1-Pad1)*%
X118562000Y-77343000D03*
%TO.P,C1,2*%
%TO.N,Net-(C1-Pad2)*%
X117602000Y-77343000D03*
%TD*%
%TO.P,C3,1*%
%TO.N,Net-(C3-Pad1)*%
X96111000Y-86106000D03*
%TO.P,C3,2*%
%TO.N,Net-(C3-Pad2)*%
X95151000Y-86106000D03*
%TD*%
D11*
%TO.P,J2,1,In*%
%TO.N,Net-(C3-Pad2)*%
X82296000Y-93980000D03*
%TO.P,J2,2,Ext*%
%TO.N,GND*%
X86546000Y-93980000D03*
X78046000Y-93980000D03*
%TD*%
D18*
%TO.N,GND*%
X91440000Y-88900000D03*
X76200000Y-76200000D03*
X127000000Y-88900000D03*
X121920000Y-83820000D03*
X124460000Y-71120000D03*
X119380000Y-66040000D03*
X83820000Y-66040000D03*
X81280000Y-71120000D03*
X96520000Y-91440000D03*
X114300000Y-83820000D03*
X109220000Y-66040000D03*
X88900000Y-83820000D03*
X93980000Y-93980000D03*
X111760000Y-83820000D03*
X121920000Y-68580000D03*
X124460000Y-88900000D03*
X127000000Y-86360000D03*
X127000000Y-68580000D03*
X91440000Y-93980000D03*
X88900000Y-66040000D03*
X121920000Y-81280000D03*
X86360000Y-83820000D03*
X78740000Y-83820000D03*
X91440000Y-71120000D03*
X129540000Y-66040000D03*
X96520000Y-66040000D03*
X76200000Y-83820000D03*
X106680000Y-63500000D03*
X104140000Y-63500000D03*
X124460000Y-66040000D03*
X99060000Y-88900000D03*
X76200000Y-78740000D03*
X104140000Y-88900000D03*
X91440000Y-63500000D03*
X104140000Y-91440000D03*
X127000000Y-91440000D03*
X124460000Y-86360000D03*
X129540000Y-88900000D03*
X101600000Y-66040000D03*
X76200000Y-81280000D03*
X104140000Y-66040000D03*
X106680000Y-83820000D03*
X119380000Y-83820000D03*
X88900000Y-76200000D03*
X88900000Y-88900000D03*
X121920000Y-86360000D03*
X129540000Y-60960000D03*
X119380000Y-73660000D03*
X93980000Y-83820000D03*
X109220000Y-91440000D03*
X88900000Y-76200000D03*
X91440000Y-76200000D03*
X129540000Y-91440000D03*
X78740000Y-76200000D03*
X78740000Y-78740000D03*
X129540000Y-86360000D03*
X93980000Y-76200000D03*
X129540000Y-68580000D03*
X116840000Y-71120000D03*
X86360000Y-88900000D03*
X127000000Y-60960000D03*
X111760000Y-81280000D03*
X93980000Y-81280000D03*
X109220000Y-73660000D03*
X96520000Y-83820000D03*
X109220000Y-60960000D03*
X119380000Y-81280000D03*
X99060000Y-63500000D03*
X109220000Y-83820000D03*
X101600000Y-63500000D03*
X78740000Y-71120000D03*
X93980000Y-88900000D03*
X101600000Y-88900000D03*
X76200000Y-88900000D03*
X124460000Y-68580000D03*
X93980000Y-66040000D03*
X93980000Y-71120000D03*
X116840000Y-81280000D03*
X111760000Y-71120000D03*
X93980000Y-78740000D03*
X88900000Y-63500000D03*
X99060000Y-91440000D03*
X101600000Y-91440000D03*
X109220000Y-88900000D03*
X88900000Y-78740000D03*
X96520000Y-63500000D03*
X109220000Y-63500000D03*
X111760000Y-73660000D03*
X129540000Y-63500000D03*
X93980000Y-60960000D03*
X106680000Y-73660000D03*
X93980000Y-63500000D03*
X104140000Y-91440000D03*
X91440000Y-91440000D03*
X114300000Y-81280000D03*
X83820000Y-71120000D03*
X101600000Y-60960000D03*
X106680000Y-60960000D03*
X76200000Y-71120000D03*
X88900000Y-73660000D03*
X88900000Y-81280000D03*
X104140000Y-71120000D03*
X83820000Y-71120000D03*
X104140000Y-60960000D03*
X91440000Y-60960000D03*
X76200000Y-66040000D03*
X91440000Y-66040000D03*
X81280000Y-81280000D03*
X99060000Y-66040000D03*
X76200000Y-73660000D03*
X86360000Y-71120000D03*
X124460000Y-63500000D03*
X91440000Y-76200000D03*
X111760000Y-88900000D03*
X127000000Y-66040000D03*
X76200000Y-86360000D03*
X96520000Y-93980000D03*
X83820000Y-83820000D03*
X78740000Y-81280000D03*
X119380000Y-68580000D03*
X96520000Y-88900000D03*
X101600000Y-71120000D03*
X106680000Y-93980000D03*
X78740000Y-73660000D03*
X96520000Y-60960000D03*
X101600000Y-93980000D03*
X91440000Y-81280000D03*
X106680000Y-88900000D03*
X78740000Y-86360000D03*
X116840000Y-73660000D03*
X111760000Y-93980000D03*
X78740000Y-68580000D03*
X106680000Y-81280000D03*
X114300000Y-71120000D03*
X111760000Y-91440000D03*
X111760000Y-66040000D03*
X91440000Y-83820000D03*
X104140000Y-93980000D03*
X127000000Y-93980000D03*
X99060000Y-60960000D03*
X127000000Y-63500000D03*
X121920000Y-71120000D03*
X96520000Y-93980000D03*
X106680000Y-66040000D03*
X86360000Y-66040000D03*
X114300000Y-88900000D03*
X129540000Y-93980000D03*
X88900000Y-71120000D03*
X99060000Y-93980000D03*
X76200000Y-76200000D03*
X114300000Y-73660000D03*
X76200000Y-68580000D03*
X91440000Y-78740000D03*
X93980000Y-91440000D03*
X121920000Y-73660000D03*
X109220000Y-93980000D03*
X121920000Y-66040000D03*
X88900000Y-60960000D03*
X109220000Y-81280000D03*
X119380000Y-71120000D03*
X93980000Y-91440000D03*
X91440000Y-73660000D03*
X93980000Y-73660000D03*
X111760000Y-73660000D03*
X106680000Y-71120000D03*
X81280000Y-86360000D03*
X106680000Y-91440000D03*
X106680000Y-60960000D03*
X116840000Y-83820000D03*
X78740000Y-81280000D03*
X109220000Y-71120000D03*
X81280000Y-78740000D03*
X81280000Y-83820000D03*
%TD*%
D19*
%TO.N,Net-(C2-Pad1)*%
X105720000Y-86106000D02*
X102494000Y-86106000D01*
D20*
%TO.N,Net-(C2-Pad2)*%
X119664600Y-88468200D02*
X119664600Y-93980000D01*
X106680000Y-86106000D02*
X117302400Y-86106000D01*
X117302400Y-86106000D02*
X119664600Y-88468200D01*
%TO.N,Net-(C3-Pad1)*%
X99314000Y-86106000D02*
X96139000Y-86106000D01*
%TO.N,Net-(C3-Pad2)*%
X95179000Y-86106000D02*
X84607400Y-86106000D01*
X82245200Y-88468200D02*
X82245200Y-93980000D01*
X84607400Y-86106000D02*
X82245200Y-88468200D01*
%TO.N,Net-(C4-Pad1)*%
X99380000Y-68961000D02*
X102555000Y-68961000D01*
%TO.N,Net-(C4-Pad2)*%
X103515000Y-68961000D02*
X114086600Y-68961000D01*
X116448800Y-66598800D02*
X116448800Y-61087000D01*
X114086600Y-68961000D02*
X116448800Y-66598800D01*
%TO.N,Net-(C5-Pad1)*%
X92974000Y-68961000D02*
X96200000Y-68961000D01*
%TO.N,Net-(C5-Pad2)*%
X92014000Y-68961000D02*
X81391600Y-68961000D01*
X79029400Y-66598800D02*
X79029400Y-61087000D01*
X81391600Y-68961000D02*
X79029400Y-66598800D01*
%TO.N,Net-(C1-Pad2)*%
X117602000Y-77343000D02*
X104006250Y-77343000D01*
D21*
X103013250Y-77347000D02*
X103857850Y-77347000D01*
D20*
%TO.N,Net-(C1-Pad1)*%
X127811250Y-77343000D02*
X118568749Y-77343000D01*
D21*
%TO.N,Net-(U1-Pad6)*%
X99313250Y-83504250D02*
X99375000Y-83566000D01*
X99313250Y-80047000D02*
X99313250Y-83504250D01*
X99320000Y-83560000D02*
X99314000Y-83566000D01*
%TO.N,Net-(U2-Pad6)*%
X99320000Y-74809000D02*
X99314000Y-74803000D01*
X99313250Y-71501750D02*
X99313250Y-75147000D01*
X99314000Y-71501000D02*
X99313250Y-71501750D01*
%TD*%
%TA.AperFunction,Conductor*%
%TO.N,GND*%
G36*
X78224421Y-58592402D02*
G01*
X78270914Y-58646058D01*
X78282300Y-58698400D01*
X78282300Y-63646748D01*
X78293933Y-63705231D01*
X78338248Y-63771552D01*
X78348561Y-63778443D01*
X78348563Y-63778445D01*
X78366304Y-63790299D01*
X78411832Y-63844776D01*
X78422302Y-63895064D01*
X78422302Y-66550741D01*
X78421224Y-66567189D01*
X78417062Y-66598800D01*
X78428046Y-66682227D01*
X78437928Y-66757284D01*
X78473763Y-66843796D01*
X78499101Y-66904969D01*
X78571978Y-66999945D01*
X78596412Y-67031788D01*
X78602965Y-67036816D01*
X78621704Y-67051195D01*
X78634096Y-67062063D01*
X80928338Y-69356305D01*
X80939205Y-69368696D01*
X80958612Y-69393988D01*
X80990453Y-69418420D01*
X80990455Y-69418422D01*
X81085431Y-69491299D01*
X81093061Y-69494459D01*
X81093062Y-69494460D01*
X81123255Y-69506966D01*
X81146604Y-69516637D01*
X81233116Y-69552472D01*
X81241300Y-69553549D01*
X81241302Y-69553550D01*
X81282487Y-69558972D01*
X81351806Y-69568098D01*
X81351808Y-69568098D01*
X81391600Y-69573337D01*
X81399788Y-69572259D01*
X81423206Y-69569176D01*
X81439652Y-69568098D01*
X92053794Y-69568098D01*
X92057880Y-69567560D01*
X92057881Y-69567560D01*
X92098232Y-69562248D01*
X92172484Y-69552472D01*
X92185275Y-69547174D01*
X92258999Y-69516636D01*
X92320168Y-69491299D01*
X92417298Y-69416770D01*
X92483517Y-69391170D01*
X92553066Y-69405435D01*
X92570700Y-69416768D01*
X92667832Y-69491299D01*
X92729001Y-69516636D01*
X92802726Y-69547174D01*
X92815516Y-69552472D01*
X92889768Y-69562248D01*
X92930119Y-69567560D01*
X92930120Y-69567560D01*
X92934206Y-69568098D01*
X96239794Y-69568098D01*
X96243880Y-69567560D01*
X96243881Y-69567560D01*
X96284232Y-69562248D01*
X96358484Y-69552472D01*
X96366114Y-69549312D01*
X96374092Y-69547174D01*
X96374467Y-69548575D01*
X96410036Y-69541500D01*
X96978748Y-69541500D01*
X96984816Y-69540293D01*
X97025061Y-69532288D01*
X97025062Y-69532288D01*
X97037231Y-69529867D01*
X97103552Y-69485552D01*
X97147867Y-69419231D01*
X97159500Y-69360748D01*
X97159500Y-68561252D01*
X97147867Y-68502769D01*
X97103552Y-68436448D01*
X97037231Y-68392133D01*
X97025062Y-68389712D01*
X97025061Y-68389712D01*
X96984816Y-68381707D01*
X96978748Y-68380500D01*
X96410036Y-68380500D01*
X96374467Y-68373425D01*
X96374092Y-68374826D01*
X96366114Y-68372688D01*
X96358484Y-68369528D01*
X96284232Y-68359752D01*
X96243881Y-68354440D01*
X96243880Y-68354440D01*
X96239794Y-68353902D01*
X92934206Y-68353902D01*
X92930120Y-68354440D01*
X92930119Y-68354440D01*
X92889768Y-68359752D01*
X92815516Y-68369528D01*
X92807887Y-68372688D01*
X92789027Y-68380500D01*
X92667832Y-68430701D01*
X92661278Y-68435730D01*
X92570703Y-68505230D01*
X92504483Y-68530830D01*
X92434934Y-68516565D01*
X92417297Y-68505230D01*
X92326722Y-68435730D01*
X92320168Y-68430701D01*
X92198973Y-68380500D01*
X92180113Y-68372688D01*
X92172484Y-68369528D01*
X92098232Y-68359752D01*
X92057881Y-68354440D01*
X92057880Y-68354440D01*
X92053794Y-68353902D01*
X81695259Y-68353902D01*
X81627138Y-68333900D01*
X81606164Y-68316997D01*
X79673403Y-66384236D01*
X79639377Y-66321924D01*
X79636498Y-66295141D01*
X79636498Y-63953500D01*
X79656500Y-63885379D01*
X79710156Y-63838886D01*
X79762498Y-63827500D01*
X80002548Y-63827500D01*
X80012698Y-63825481D01*
X80048861Y-63818288D01*
X80048862Y-63818288D01*
X80061031Y-63815867D01*
X80127352Y-63771552D01*
X80171667Y-63705231D01*
X80183300Y-63646748D01*
X80183300Y-58698400D01*
X80203302Y-58630279D01*
X80256958Y-58583786D01*
X80309300Y-58572400D01*
X115545100Y-58572400D01*
X115613221Y-58592402D01*
X115659714Y-58646058D01*
X115671100Y-58698400D01*
X115671100Y-63646748D01*
X115682733Y-63705231D01*
X115727048Y-63771552D01*
X115737361Y-63778443D01*
X115785705Y-63810746D01*
X115831232Y-63865224D01*
X115841702Y-63915511D01*
X115841702Y-66295141D01*
X115821700Y-66363262D01*
X115804797Y-66384236D01*
X113872036Y-68316997D01*
X113809724Y-68351023D01*
X113782941Y-68353902D01*
X103475206Y-68353902D01*
X103471120Y-68354440D01*
X103471119Y-68354440D01*
X103430768Y-68359752D01*
X103356516Y-68369528D01*
X103348887Y-68372688D01*
X103330027Y-68380500D01*
X103208832Y-68430701D01*
X103202278Y-68435730D01*
X103111703Y-68505230D01*
X103045483Y-68530830D01*
X102975934Y-68516565D01*
X102958297Y-68505230D01*
X102867722Y-68435730D01*
X102861168Y-68430701D01*
X102739973Y-68380500D01*
X102721113Y-68372688D01*
X102713484Y-68369528D01*
X102639232Y-68359752D01*
X102598881Y-68354440D01*
X102598880Y-68354440D01*
X102594794Y-68353902D01*
X99340206Y-68353902D01*
X99336120Y-68354440D01*
X99336119Y-68354440D01*
X99295768Y-68359752D01*
X99221516Y-68369528D01*
X99213886Y-68372688D01*
X99205908Y-68374826D01*
X99205533Y-68373425D01*
X99169964Y-68380500D01*
X98469252Y-68380500D01*
X98463184Y-68381707D01*
X98422939Y-68389712D01*
X98422938Y-68389712D01*
X98410769Y-68392133D01*
X98344448Y-68436448D01*
X98300133Y-68502769D01*
X98288500Y-68561252D01*
X98288500Y-69360748D01*
X98300133Y-69419231D01*
X98344448Y-69485552D01*
X98410769Y-69529867D01*
X98422938Y-69532288D01*
X98422939Y-69532288D01*
X98463184Y-69540293D01*
X98469252Y-69541500D01*
X99169964Y-69541500D01*
X99205533Y-69548575D01*
X99205908Y-69547174D01*
X99213886Y-69549312D01*
X99221516Y-69552472D01*
X99295768Y-69562248D01*
X99336119Y-69567560D01*
X99336120Y-69567560D01*
X99340206Y-69568098D01*
X102594794Y-69568098D01*
X102598880Y-69567560D01*
X102598881Y-69567560D01*
X102639232Y-69562248D01*
X102713484Y-69552472D01*
X102726275Y-69547174D01*
X102799999Y-69516636D01*
X102861168Y-69491299D01*
X102958298Y-69416770D01*
X103024517Y-69391170D01*
X103094066Y-69405435D01*
X103111700Y-69416768D01*
X103208832Y-69491299D01*
X103270001Y-69516636D01*
X103343726Y-69547174D01*
X103356516Y-69552472D01*
X103430768Y-69562248D01*
X103471119Y-69567560D01*
X103471120Y-69567560D01*
X103475206Y-69568098D01*
X114038541Y-69568098D01*
X114054989Y-69569176D01*
X114078412Y-69572260D01*
X114078413Y-69572260D01*
X114086600Y-69573338D01*
X114094796Y-69572259D01*
X114170027Y-69562354D01*
X114236897Y-69553550D01*
X114236898Y-69553550D01*
X114245084Y-69552472D01*
X114252709Y-69549313D01*
X114252711Y-69549313D01*
X114331596Y-69516637D01*
X114331598Y-69516636D01*
X114385138Y-69494460D01*
X114385139Y-69494459D01*
X114392769Y-69491299D01*
X114487745Y-69418422D01*
X114487747Y-69418420D01*
X114519588Y-69393988D01*
X114538995Y-69368696D01*
X114549863Y-69356304D01*
X116844105Y-67062062D01*
X116856497Y-67051194D01*
X116875235Y-67036816D01*
X116881788Y-67031788D01*
X116906222Y-66999945D01*
X116979099Y-66904969D01*
X117004437Y-66843796D01*
X117040272Y-66757284D01*
X117055898Y-66638594D01*
X117055898Y-66638592D01*
X117061137Y-66598800D01*
X117056976Y-66567194D01*
X117055898Y-66550748D01*
X117055898Y-63953500D01*
X117075900Y-63885379D01*
X117129556Y-63838886D01*
X117181898Y-63827500D01*
X117391348Y-63827500D01*
X117401498Y-63825481D01*
X117437661Y-63818288D01*
X117437662Y-63818288D01*
X117449831Y-63815867D01*
X117516152Y-63771552D01*
X117560467Y-63705231D01*
X117572100Y-63646748D01*
X117572100Y-58698400D01*
X117592102Y-58630279D01*
X117645758Y-58583786D01*
X117698100Y-58572400D01*
X130531600Y-58572400D01*
X130599721Y-58592402D01*
X130646214Y-58646058D01*
X130657600Y-58698400D01*
X130657600Y-76266500D01*
X130637598Y-76334621D01*
X130583942Y-76381114D01*
X130531600Y-76392500D01*
X125421002Y-76392500D01*
X125414934Y-76393707D01*
X125374689Y-76401712D01*
X125374688Y-76401712D01*
X125362519Y-76404133D01*
X125296198Y-76448448D01*
X125251883Y-76514769D01*
X125240250Y-76573252D01*
X125240250Y-76609902D01*
X125220248Y-76678023D01*
X125166592Y-76724516D01*
X125114250Y-76735902D01*
X118528955Y-76735902D01*
X118524869Y-76736440D01*
X118524868Y-76736440D01*
X118484517Y-76741752D01*
X118410265Y-76751528D01*
X118262581Y-76812701D01*
X118162076Y-76889820D01*
X118095858Y-76915419D01*
X118026309Y-76901154D01*
X118008672Y-76889819D01*
X117914722Y-76817730D01*
X117914719Y-76817728D01*
X117908168Y-76812701D01*
X117760484Y-76751528D01*
X117686232Y-76741752D01*
X117645881Y-76736440D01*
X117645880Y-76736440D01*
X117641794Y-76735902D01*
X103966456Y-76735902D01*
X103962370Y-76736440D01*
X103962369Y-76736440D01*
X103922018Y-76741752D01*
X103847766Y-76751528D01*
X103763548Y-76786412D01*
X103692961Y-76794001D01*
X103629474Y-76762222D01*
X103593246Y-76701164D01*
X103595780Y-76630213D01*
X103610567Y-76600001D01*
X103620223Y-76585550D01*
X103620225Y-76585546D01*
X103627117Y-76575231D01*
X103638750Y-76516748D01*
X103638750Y-76177252D01*
X103627676Y-76121579D01*
X103627676Y-76072421D01*
X103638750Y-76016748D01*
X103638750Y-75677252D01*
X103627117Y-75618769D01*
X103582802Y-75552448D01*
X103516481Y-75508133D01*
X103504312Y-75505712D01*
X103504311Y-75505712D01*
X103464066Y-75497707D01*
X103457998Y-75496500D01*
X102789750Y-75496500D01*
X102721629Y-75476498D01*
X102675136Y-75422842D01*
X102663750Y-75370500D01*
X102663750Y-74702252D01*
X102662543Y-74696184D01*
X102654538Y-74655939D01*
X102654538Y-74655938D01*
X102652117Y-74643769D01*
X102607802Y-74577448D01*
X102541481Y-74533133D01*
X102529312Y-74530712D01*
X102529311Y-74530712D01*
X102489066Y-74522707D01*
X102482998Y-74521500D01*
X102143502Y-74521500D01*
X102087829Y-74532574D01*
X102038671Y-74532574D01*
X101982998Y-74521500D01*
X101643502Y-74521500D01*
X101587829Y-74532574D01*
X101538671Y-74532574D01*
X101482998Y-74521500D01*
X101143502Y-74521500D01*
X101087829Y-74532574D01*
X101038671Y-74532574D01*
X100982998Y-74521500D01*
X100643502Y-74521500D01*
X100587829Y-74532574D01*
X100538671Y-74532574D01*
X100482998Y-74521500D01*
X100143502Y-74521500D01*
X100137434Y-74522707D01*
X100097189Y-74530712D01*
X100097188Y-74530712D01*
X100085019Y-74533133D01*
X100018698Y-74577448D01*
X99974383Y-74643769D01*
X99971962Y-74655938D01*
X99971962Y-74655939D01*
X99963957Y-74696184D01*
X99962750Y-74702252D01*
X99962750Y-75470500D01*
X99942748Y-75538621D01*
X99889092Y-75585114D01*
X99836750Y-75596500D01*
X99789750Y-75596500D01*
X99721629Y-75576498D01*
X99675136Y-75522842D01*
X99663750Y-75470500D01*
X99663750Y-74702252D01*
X99652117Y-74643769D01*
X99647530Y-74636905D01*
X99638750Y-74592762D01*
X99638750Y-72207500D01*
X99658752Y-72139379D01*
X99712408Y-72092886D01*
X99764750Y-72081500D01*
X100158748Y-72081500D01*
X100164816Y-72080293D01*
X100205061Y-72072288D01*
X100205062Y-72072288D01*
X100217231Y-72069867D01*
X100283552Y-72025552D01*
X100327867Y-71959231D01*
X100339500Y-71900748D01*
X100339500Y-71101252D01*
X100327867Y-71042769D01*
X100283552Y-70976448D01*
X100217231Y-70932133D01*
X100205062Y-70929712D01*
X100205061Y-70929712D01*
X100164816Y-70921707D01*
X100158748Y-70920500D01*
X98469252Y-70920500D01*
X98463184Y-70921707D01*
X98422939Y-70929712D01*
X98422938Y-70929712D01*
X98410769Y-70932133D01*
X98344448Y-70976448D01*
X98300133Y-71042769D01*
X98288500Y-71101252D01*
X98288500Y-71900748D01*
X98300133Y-71959231D01*
X98344448Y-72025552D01*
X98410769Y-72069867D01*
X98422938Y-72072288D01*
X98422939Y-72072288D01*
X98463184Y-72080293D01*
X98469252Y-72081500D01*
X98861750Y-72081500D01*
X98929871Y-72101502D01*
X98976364Y-72155158D01*
X98987750Y-72207500D01*
X98987750Y-74592762D01*
X98978970Y-74636905D01*
X98974383Y-74643769D01*
X98962750Y-74702252D01*
X98962750Y-75470500D01*
X98942748Y-75538621D01*
X98889092Y-75585114D01*
X98836750Y-75596500D01*
X98775621Y-75596500D01*
X98707500Y-75576498D01*
X98688805Y-75561433D01*
X98682802Y-75552448D01*
X98616481Y-75508133D01*
X98604312Y-75505712D01*
X98604311Y-75505712D01*
X98564066Y-75497707D01*
X98557998Y-75496500D01*
X97668502Y-75496500D01*
X97662434Y-75497707D01*
X97622189Y-75505712D01*
X97622188Y-75505712D01*
X97610019Y-75508133D01*
X97543698Y-75552448D01*
X97499383Y-75618769D01*
X97487750Y-75677252D01*
X97487750Y-76016748D01*
X97498824Y-76072421D01*
X97498824Y-76121579D01*
X97487750Y-76177252D01*
X97487750Y-76516748D01*
X97498824Y-76572421D01*
X97498824Y-76621579D01*
X97487750Y-76677252D01*
X97487750Y-77016748D01*
X97498824Y-77072421D01*
X97498824Y-77121579D01*
X97487750Y-77177252D01*
X97487750Y-77516748D01*
X97498824Y-77572421D01*
X97498824Y-77621579D01*
X97487750Y-77677252D01*
X97487750Y-78016748D01*
X97498824Y-78072421D01*
X97498824Y-78121579D01*
X97487750Y-78177252D01*
X97487750Y-78516748D01*
X97498824Y-78572421D01*
X97498824Y-78621579D01*
X97487750Y-78677252D01*
X97487750Y-79016748D01*
X97498824Y-79072421D01*
X97498824Y-79121579D01*
X97487750Y-79177252D01*
X97487750Y-79516748D01*
X97499383Y-79575231D01*
X97543698Y-79641552D01*
X97610019Y-79685867D01*
X97622188Y-79688288D01*
X97622189Y-79688288D01*
X97662434Y-79696293D01*
X97668502Y-79697500D01*
X98557998Y-79697500D01*
X98564066Y-79696293D01*
X98604311Y-79688288D01*
X98604312Y-79688288D01*
X98616481Y-79685867D01*
X98682802Y-79641552D01*
X98688182Y-79633501D01*
X98748835Y-79600380D01*
X98775621Y-79597500D01*
X98836750Y-79597500D01*
X98904871Y-79617502D01*
X98951364Y-79671158D01*
X98962750Y-79723500D01*
X98962750Y-80491748D01*
X98974383Y-80550231D01*
X98978970Y-80557095D01*
X98987750Y-80601238D01*
X98987750Y-82859500D01*
X98967748Y-82927621D01*
X98914092Y-82974114D01*
X98861750Y-82985500D01*
X98530252Y-82985500D01*
X98524184Y-82986707D01*
X98483939Y-82994712D01*
X98483938Y-82994712D01*
X98471769Y-82997133D01*
X98405448Y-83041448D01*
X98361133Y-83107769D01*
X98349500Y-83166252D01*
X98349500Y-83965748D01*
X98361133Y-84024231D01*
X98405448Y-84090552D01*
X98471769Y-84134867D01*
X98483938Y-84137288D01*
X98483939Y-84137288D01*
X98524184Y-84145293D01*
X98530252Y-84146500D01*
X100219748Y-84146500D01*
X100225816Y-84145293D01*
X100266061Y-84137288D01*
X100266062Y-84137288D01*
X100278231Y-84134867D01*
X100344552Y-84090552D01*
X100388867Y-84024231D01*
X100400500Y-83965748D01*
X101529500Y-83965748D01*
X101541133Y-84024231D01*
X101585448Y-84090552D01*
X101651769Y-84134867D01*
X101663938Y-84137288D01*
X101663939Y-84137288D01*
X101704184Y-84145293D01*
X101710252Y-84146500D01*
X103399748Y-84146500D01*
X103405816Y-84145293D01*
X103446061Y-84137288D01*
X103446062Y-84137288D01*
X103458231Y-84134867D01*
X103524552Y-84090552D01*
X103568867Y-84024231D01*
X103580500Y-83965748D01*
X103580500Y-83166252D01*
X103568867Y-83107769D01*
X103524552Y-83041448D01*
X103458231Y-82997133D01*
X103446062Y-82994712D01*
X103446061Y-82994712D01*
X103405816Y-82986707D01*
X103399748Y-82985500D01*
X101710252Y-82985500D01*
X101704184Y-82986707D01*
X101663939Y-82994712D01*
X101663938Y-82994712D01*
X101651769Y-82997133D01*
X101585448Y-83041448D01*
X101541133Y-83107769D01*
X101529500Y-83166252D01*
X101529500Y-83965748D01*
X100400500Y-83965748D01*
X100400500Y-83166252D01*
X100388867Y-83107769D01*
X100344552Y-83041448D01*
X100278231Y-82997133D01*
X100266062Y-82994712D01*
X100266061Y-82994712D01*
X100225816Y-82986707D01*
X100219748Y-82985500D01*
X99764750Y-82985500D01*
X99696629Y-82965498D01*
X99650136Y-82911842D01*
X99638750Y-82859500D01*
X99638750Y-80601238D01*
X99647530Y-80557095D01*
X99652117Y-80550231D01*
X99663750Y-80491748D01*
X99663750Y-79723500D01*
X99683752Y-79655379D01*
X99737408Y-79608886D01*
X99789750Y-79597500D01*
X99836750Y-79597500D01*
X99904871Y-79617502D01*
X99951364Y-79671158D01*
X99962750Y-79723500D01*
X99962750Y-80491748D01*
X99963957Y-80497816D01*
X99971962Y-80538058D01*
X99974383Y-80550231D01*
X100018698Y-80616552D01*
X100085019Y-80660867D01*
X100097188Y-80663288D01*
X100097189Y-80663288D01*
X100137434Y-80671293D01*
X100143502Y-80672500D01*
X100482998Y-80672500D01*
X100538671Y-80661426D01*
X100587829Y-80661426D01*
X100643502Y-80672500D01*
X100982998Y-80672500D01*
X101038671Y-80661426D01*
X101087829Y-80661426D01*
X101143502Y-80672500D01*
X101482998Y-80672500D01*
X101538671Y-80661426D01*
X101587829Y-80661426D01*
X101643502Y-80672500D01*
X101982998Y-80672500D01*
X102038671Y-80661426D01*
X102087829Y-80661426D01*
X102143502Y-80672500D01*
X102482998Y-80672500D01*
X102489066Y-80671293D01*
X102529311Y-80663288D01*
X102529312Y-80663288D01*
X102541481Y-80660867D01*
X102607802Y-80616552D01*
X102652117Y-80550231D01*
X102654539Y-80538058D01*
X102662543Y-80497816D01*
X102663750Y-80491748D01*
X102663750Y-79823500D01*
X102683752Y-79755379D01*
X102737408Y-79708886D01*
X102789750Y-79697500D01*
X103457998Y-79697500D01*
X103464066Y-79696293D01*
X103504311Y-79688288D01*
X103504312Y-79688288D01*
X103516481Y-79685867D01*
X103582802Y-79641552D01*
X103627117Y-79575231D01*
X103638750Y-79516748D01*
X103638750Y-79177252D01*
X103627676Y-79121579D01*
X103627676Y-79072421D01*
X103638750Y-79016748D01*
X103638750Y-78677252D01*
X103627676Y-78621579D01*
X103627676Y-78572421D01*
X103638750Y-78516748D01*
X103638750Y-78177252D01*
X103627117Y-78118769D01*
X103620225Y-78108454D01*
X103620223Y-78108450D01*
X103603176Y-78082938D01*
X103581961Y-78015185D01*
X103600744Y-77946718D01*
X103653561Y-77899275D01*
X103723643Y-77887918D01*
X103756159Y-77896527D01*
X103847766Y-77934472D01*
X103922018Y-77944248D01*
X103962369Y-77949560D01*
X103962370Y-77949560D01*
X103966456Y-77950098D01*
X117641794Y-77950098D01*
X117645880Y-77949560D01*
X117645881Y-77949560D01*
X117686232Y-77944248D01*
X117760484Y-77934472D01*
X117908168Y-77873299D01*
X117940022Y-77848857D01*
X118008672Y-77796181D01*
X118074892Y-77770581D01*
X118144441Y-77784846D01*
X118162069Y-77796175D01*
X118262581Y-77873299D01*
X118410265Y-77934472D01*
X118484517Y-77944248D01*
X118524868Y-77949560D01*
X118524869Y-77949560D01*
X118528955Y-77950098D01*
X125114250Y-77950098D01*
X125182371Y-77970100D01*
X125228864Y-78023756D01*
X125240250Y-78076098D01*
X125240250Y-78112748D01*
X125251883Y-78171231D01*
X125296198Y-78237552D01*
X125362519Y-78281867D01*
X125374688Y-78284288D01*
X125374689Y-78284288D01*
X125414934Y-78292293D01*
X125421002Y-78293500D01*
X130531600Y-78293500D01*
X130599721Y-78313502D01*
X130646214Y-78367158D01*
X130657600Y-78419500D01*
X130657600Y-96241600D01*
X130637598Y-96309721D01*
X130583942Y-96356214D01*
X130531600Y-96367600D01*
X120710500Y-96367600D01*
X120642379Y-96347598D01*
X120595886Y-96293942D01*
X120584500Y-96241600D01*
X120584500Y-91420252D01*
X120572867Y-91361769D01*
X120528552Y-91295448D01*
X120462231Y-91251133D01*
X120450062Y-91248712D01*
X120450061Y-91248712D01*
X120409816Y-91240707D01*
X120403748Y-91239500D01*
X120397561Y-91239500D01*
X120391398Y-91238893D01*
X120391517Y-91237685D01*
X120329577Y-91219498D01*
X120283084Y-91165842D01*
X120271698Y-91113500D01*
X120271698Y-88516251D01*
X120272776Y-88499804D01*
X120275859Y-88476388D01*
X120275859Y-88476387D01*
X120276937Y-88468200D01*
X120271698Y-88428406D01*
X120256072Y-88309716D01*
X120194899Y-88162032D01*
X120194899Y-88162031D01*
X120186282Y-88150802D01*
X120186282Y-88150800D01*
X120122022Y-88067055D01*
X120122017Y-88067049D01*
X120097588Y-88035212D01*
X120072296Y-88015805D01*
X120059904Y-88004937D01*
X117765662Y-85710695D01*
X117754794Y-85698303D01*
X117740416Y-85679565D01*
X117735388Y-85673012D01*
X117703545Y-85648578D01*
X117608569Y-85575701D01*
X117515457Y-85537133D01*
X117460884Y-85514528D01*
X117385827Y-85504646D01*
X117342207Y-85498903D01*
X117310588Y-85494740D01*
X117302400Y-85493662D01*
X117270787Y-85497824D01*
X117254342Y-85498902D01*
X106640206Y-85498902D01*
X106636120Y-85499440D01*
X106636119Y-85499440D01*
X106596576Y-85504646D01*
X106521516Y-85514528D01*
X106513887Y-85517688D01*
X106495027Y-85525500D01*
X106373832Y-85575701D01*
X106367281Y-85580728D01*
X106367278Y-85580730D01*
X106276703Y-85650230D01*
X106248761Y-85671670D01*
X106248759Y-85671671D01*
X106247012Y-85673012D01*
X106246803Y-85672740D01*
X106188909Y-85704353D01*
X106118094Y-85699288D01*
X106082733Y-85678850D01*
X106077804Y-85673489D01*
X105948313Y-85593201D01*
X105940064Y-85590805D01*
X105940063Y-85590804D01*
X105808340Y-85552536D01*
X105808341Y-85552536D01*
X105802000Y-85550694D01*
X105794635Y-85550153D01*
X105793495Y-85550069D01*
X105793484Y-85550069D01*
X105791188Y-85549900D01*
X103507789Y-85549900D01*
X103464431Y-85541276D01*
X103458231Y-85537133D01*
X103446057Y-85534711D01*
X103446056Y-85534711D01*
X103405816Y-85526707D01*
X103399748Y-85525500D01*
X101710252Y-85525500D01*
X101704184Y-85526707D01*
X101663939Y-85534712D01*
X101663938Y-85534712D01*
X101651769Y-85537133D01*
X101585448Y-85581448D01*
X101541133Y-85647769D01*
X101538712Y-85659938D01*
X101538712Y-85659939D01*
X101536166Y-85672740D01*
X101529500Y-85706252D01*
X101529500Y-86505748D01*
X101530707Y-86511816D01*
X101537112Y-86544014D01*
X101541133Y-86564231D01*
X101585448Y-86630552D01*
X101651769Y-86674867D01*
X101663938Y-86677288D01*
X101663939Y-86677288D01*
X101704184Y-86685293D01*
X101710252Y-86686500D01*
X103399748Y-86686500D01*
X103405816Y-86685293D01*
X103446056Y-86677289D01*
X103446057Y-86677289D01*
X103458231Y-86674867D01*
X103464431Y-86670724D01*
X103507789Y-86662100D01*
X105758165Y-86662100D01*
X105762410Y-86661518D01*
X105762417Y-86661518D01*
X105862443Y-86647816D01*
X105862446Y-86647815D01*
X105870952Y-86646650D01*
X106010783Y-86586140D01*
X106080043Y-86530054D01*
X106145566Y-86502730D01*
X106215465Y-86515169D01*
X106245083Y-86536474D01*
X106247012Y-86538988D01*
X106253562Y-86544014D01*
X106279910Y-86564231D01*
X106373832Y-86636299D01*
X106466943Y-86674867D01*
X106508726Y-86692174D01*
X106521516Y-86697472D01*
X106595768Y-86707248D01*
X106636119Y-86712560D01*
X106636120Y-86712560D01*
X106640206Y-86713098D01*
X116998741Y-86713098D01*
X117066862Y-86733100D01*
X117087836Y-86750003D01*
X119020597Y-88682764D01*
X119054623Y-88745076D01*
X119057502Y-88771859D01*
X119057502Y-91113500D01*
X119037500Y-91181621D01*
X118983844Y-91228114D01*
X118931502Y-91239500D01*
X118864252Y-91239500D01*
X118858184Y-91240707D01*
X118817939Y-91248712D01*
X118817938Y-91248712D01*
X118805769Y-91251133D01*
X118739448Y-91295448D01*
X118695133Y-91361769D01*
X118683500Y-91420252D01*
X118683500Y-96241600D01*
X118663498Y-96309721D01*
X118609842Y-96356214D01*
X118557500Y-96367600D01*
X83372500Y-96367600D01*
X83304379Y-96347598D01*
X83257886Y-96293942D01*
X83246500Y-96241600D01*
X83246500Y-91420252D01*
X83234867Y-91361769D01*
X83190552Y-91295448D01*
X83124231Y-91251133D01*
X83112062Y-91248712D01*
X83112061Y-91248712D01*
X83071816Y-91240707D01*
X83065748Y-91239500D01*
X82978298Y-91239500D01*
X82910177Y-91219498D01*
X82863684Y-91165842D01*
X82852298Y-91113500D01*
X82852298Y-88771859D01*
X82872300Y-88703738D01*
X82889203Y-88682764D01*
X84821964Y-86750003D01*
X84884276Y-86715977D01*
X84911059Y-86713098D01*
X95218794Y-86713098D01*
X95222880Y-86712560D01*
X95222881Y-86712560D01*
X95263232Y-86707248D01*
X95337484Y-86697472D01*
X95350275Y-86692174D01*
X95392057Y-86674867D01*
X95485168Y-86636299D01*
X95582298Y-86561770D01*
X95648517Y-86536170D01*
X95718066Y-86550435D01*
X95735700Y-86561768D01*
X95832832Y-86636299D01*
X95925943Y-86674867D01*
X95967726Y-86692174D01*
X95980516Y-86697472D01*
X96054768Y-86707248D01*
X96095119Y-86712560D01*
X96095120Y-86712560D01*
X96099206Y-86713098D01*
X99353794Y-86713098D01*
X99357880Y-86712560D01*
X99357881Y-86712560D01*
X99398232Y-86707248D01*
X99472484Y-86697472D01*
X99480114Y-86694312D01*
X99488092Y-86692174D01*
X99488467Y-86693575D01*
X99524036Y-86686500D01*
X100219748Y-86686500D01*
X100225816Y-86685293D01*
X100266061Y-86677288D01*
X100266062Y-86677288D01*
X100278231Y-86674867D01*
X100344552Y-86630552D01*
X100388867Y-86564231D01*
X100392889Y-86544014D01*
X100399293Y-86511816D01*
X100400500Y-86505748D01*
X100400500Y-85706252D01*
X100393834Y-85672740D01*
X100391288Y-85659939D01*
X100391288Y-85659938D01*
X100388867Y-85647769D01*
X100344552Y-85581448D01*
X100278231Y-85537133D01*
X100266062Y-85534712D01*
X100266061Y-85534712D01*
X100225816Y-85526707D01*
X100219748Y-85525500D01*
X99524036Y-85525500D01*
X99488467Y-85518425D01*
X99488092Y-85519826D01*
X99480114Y-85517688D01*
X99472484Y-85514528D01*
X99397424Y-85504646D01*
X99357881Y-85499440D01*
X99357880Y-85499440D01*
X99353794Y-85498902D01*
X96099206Y-85498902D01*
X96095120Y-85499440D01*
X96095119Y-85499440D01*
X96055576Y-85504646D01*
X95980516Y-85514528D01*
X95972887Y-85517688D01*
X95954027Y-85525500D01*
X95832832Y-85575701D01*
X95737856Y-85648578D01*
X95735703Y-85650230D01*
X95669483Y-85675830D01*
X95599934Y-85661565D01*
X95582297Y-85650230D01*
X95580145Y-85648578D01*
X95485168Y-85575701D01*
X95363973Y-85525500D01*
X95345113Y-85517688D01*
X95337484Y-85514528D01*
X95262424Y-85504646D01*
X95222881Y-85499440D01*
X95222880Y-85499440D01*
X95218794Y-85498902D01*
X84655451Y-85498902D01*
X84639004Y-85497824D01*
X84615588Y-85494741D01*
X84607400Y-85493663D01*
X84567608Y-85498902D01*
X84567606Y-85498902D01*
X84448916Y-85514528D01*
X84441287Y-85517688D01*
X84422427Y-85525500D01*
X84394343Y-85537133D01*
X84301231Y-85575701D01*
X84206255Y-85648578D01*
X84174412Y-85673012D01*
X84169384Y-85679565D01*
X84155005Y-85698304D01*
X84144137Y-85710696D01*
X81849895Y-88004938D01*
X81837504Y-88015805D01*
X81812212Y-88035212D01*
X81787780Y-88067053D01*
X81787778Y-88067055D01*
X81714901Y-88162031D01*
X81714901Y-88162032D01*
X81653728Y-88309716D01*
X81643846Y-88384773D01*
X81632862Y-88468200D01*
X81633940Y-88476387D01*
X81637024Y-88499810D01*
X81638102Y-88516258D01*
X81638102Y-91114894D01*
X81618100Y-91183015D01*
X81564444Y-91229508D01*
X81527372Y-91239500D01*
X81526252Y-91239500D01*
X81494646Y-91245787D01*
X81479939Y-91248712D01*
X81479938Y-91248712D01*
X81467769Y-91251133D01*
X81401448Y-91295448D01*
X81357133Y-91361769D01*
X81345500Y-91420252D01*
X81345500Y-96241600D01*
X81325498Y-96309721D01*
X81271842Y-96356214D01*
X81219500Y-96367600D01*
X73938400Y-96367600D01*
X73870279Y-96347598D01*
X73823786Y-96293942D01*
X73812400Y-96241600D01*
X73812400Y-71900748D01*
X95108500Y-71900748D01*
X95120133Y-71959231D01*
X95164448Y-72025552D01*
X95230769Y-72069867D01*
X95242938Y-72072288D01*
X95242939Y-72072288D01*
X95283184Y-72080293D01*
X95289252Y-72081500D01*
X96978748Y-72081500D01*
X96984816Y-72080293D01*
X97025061Y-72072288D01*
X97025062Y-72072288D01*
X97037231Y-72069867D01*
X97103552Y-72025552D01*
X97147867Y-71959231D01*
X97159500Y-71900748D01*
X97159500Y-71101252D01*
X97147867Y-71042769D01*
X97103552Y-70976448D01*
X97037231Y-70932133D01*
X97025062Y-70929712D01*
X97025061Y-70929712D01*
X96984816Y-70921707D01*
X96978748Y-70920500D01*
X95289252Y-70920500D01*
X95283184Y-70921707D01*
X95242939Y-70929712D01*
X95242938Y-70929712D01*
X95230769Y-70932133D01*
X95164448Y-70976448D01*
X95120133Y-71042769D01*
X95108500Y-71101252D01*
X95108500Y-71900748D01*
X73812400Y-71900748D01*
X73812400Y-58698400D01*
X73832402Y-58630279D01*
X73886058Y-58583786D01*
X73938400Y-58572400D01*
X78156300Y-58572400D01*
X78224421Y-58592402D01*
G37*
%TD.AperFunction*%
%TA.AperFunction,Conductor*%
G36*
X103519021Y-77717502D02*
G01*
X103550861Y-77746795D01*
X103573262Y-77775988D01*
X103579812Y-77781014D01*
X103585343Y-77786545D01*
X103619369Y-77848857D01*
X103614304Y-77919672D01*
X103571757Y-77976508D01*
X103505237Y-78001319D01*
X103471668Y-77999219D01*
X103457998Y-77996500D01*
X102689750Y-77996500D01*
X102621629Y-77976498D01*
X102575136Y-77922842D01*
X102563750Y-77870500D01*
X102563750Y-77823500D01*
X102583752Y-77755379D01*
X102637408Y-77708886D01*
X102689750Y-77697500D01*
X103450900Y-77697500D01*
X103519021Y-77717502D01*
G37*
%TD.AperFunction*%
%TA.AperFunction,Conductor*%
G36*
X103470412Y-76697547D02*
G01*
X103532406Y-76703101D01*
X103588468Y-76746661D01*
X103612081Y-76813616D01*
X103595747Y-76882708D01*
X103577263Y-76906942D01*
X103573262Y-76910012D01*
X103563418Y-76922842D01*
X103544725Y-76947203D01*
X103487388Y-76989071D01*
X103444762Y-76996500D01*
X102689750Y-76996500D01*
X102621629Y-76976498D01*
X102575136Y-76922842D01*
X102563750Y-76870500D01*
X102563750Y-76823500D01*
X102583752Y-76755379D01*
X102637408Y-76708886D01*
X102689750Y-76697500D01*
X103457998Y-76697500D01*
X103464066Y-76696293D01*
X103470229Y-76695686D01*
X103470412Y-76697547D01*
G37*
%TD.AperFunction*%
%TD*%
M02*
