%TF.GenerationSoftware,KiCad,Pcbnew,(6.0.1)*%
%TF.CreationDate,2022-03-10T14:05:26-07:00*%
%TF.ProjectId,RFSoC_directclocking,5246536f-435f-4646-9972-656374636c6f,rev?*%
%TF.SameCoordinates,Original*%
%TF.FileFunction,Paste,Top*%
%TF.FilePolarity,Positive*%
%FSLAX46Y46*%
G04 Gerber Fmt 4.6, Leading zero omitted, Abs format (unit mm)*
G04 Created by KiCad (PCBNEW (6.0.1)) date 2022-03-10 14:05:26*
%MOMM*%
%LPD*%
G01*
G04 APERTURE LIST*
G04 Aperture macros list*
%AMRoundRect*
0 Rectangle with rounded corners*
0 $1 Rounding radius*
0 $2 $3 $4 $5 $6 $7 $8 $9 X,Y pos of 4 corners*
0 Add a 4 corners polygon primitive as box body*
4,1,4,$2,$3,$4,$5,$6,$7,$8,$9,$2,$3,0*
0 Add four circle primitives for the rounded corners*
1,1,$1+$1,$2,$3*
1,1,$1+$1,$4,$5*
1,1,$1+$1,$6,$7*
1,1,$1+$1,$8,$9*
0 Add four rect primitives between the rounded corners*
20,1,$1+$1,$2,$3,$4,$5,0*
20,1,$1+$1,$4,$5,$6,$7,0*
20,1,$1+$1,$6,$7,$8,$9,0*
20,1,$1+$1,$8,$9,$2,$3,0*%
G04 Aperture macros list end*
%ADD10RoundRect,0.140000X-0.140000X-0.170000X0.140000X-0.170000X0.140000X0.170000X-0.140000X0.170000X0*%
%ADD11R,1.500000X5.080000*%
%ADD12R,5.080000X1.500000*%
%ADD13R,1.650000X0.760000*%
%ADD14RoundRect,0.140000X0.140000X0.170000X-0.140000X0.170000X-0.140000X-0.170000X0.140000X-0.170000X0*%
%ADD15R,0.850000X0.300000*%
%ADD16R,0.300000X0.850000*%
%ADD17R,3.600000X3.600000*%
G04 APERTURE END LIST*
D10*
%TO.C,C4*%
X102550000Y-68961000D03*
X103510000Y-68961000D03*
%TD*%
D11*
%TO.C,J4*%
X79232800Y-61087000D03*
X74982800Y-61087000D03*
X83482800Y-61087000D03*
%TD*%
D12*
%TO.C,J1*%
X127980750Y-77343000D03*
X127980750Y-81593000D03*
X127980750Y-73093000D03*
%TD*%
D13*
%TO.C,U1*%
X102555000Y-83566000D03*
X102555000Y-84836000D03*
X102555000Y-86106000D03*
X99375000Y-86106000D03*
X99375000Y-84836000D03*
X99375000Y-83566000D03*
%TD*%
D14*
%TO.C,C5*%
X92997000Y-68961000D03*
X92037000Y-68961000D03*
%TD*%
D15*
%TO.C,U3*%
X98113250Y-75847000D03*
X98113250Y-76347000D03*
X98113250Y-76847000D03*
X98113250Y-77347000D03*
X98113250Y-77847000D03*
X98113250Y-78347000D03*
X98113250Y-78847000D03*
X98113250Y-79347000D03*
D16*
X98813250Y-80047000D03*
X99313250Y-80047000D03*
X99813250Y-80047000D03*
X100313250Y-80047000D03*
X100813250Y-80047000D03*
X101313250Y-80047000D03*
X101813250Y-80047000D03*
X102313250Y-80047000D03*
D15*
X103013250Y-79347000D03*
X103013250Y-78847000D03*
X103013250Y-78347000D03*
X103013250Y-77847000D03*
X103013250Y-77347000D03*
X103013250Y-76847000D03*
X103013250Y-76347000D03*
X103013250Y-75847000D03*
D16*
X102313250Y-75147000D03*
X101813250Y-75147000D03*
X101313250Y-75147000D03*
X100813250Y-75147000D03*
X100313250Y-75147000D03*
X99813250Y-75147000D03*
X99313250Y-75147000D03*
X98813250Y-75147000D03*
D17*
X100563250Y-77597000D03*
%TD*%
D13*
%TO.C,U2*%
X96134000Y-71501000D03*
X96134000Y-70231000D03*
X96134000Y-68961000D03*
X99314000Y-68961000D03*
X99314000Y-70231000D03*
X99314000Y-71501000D03*
%TD*%
D11*
%TO.C,J3*%
X119634000Y-93980000D03*
X123884000Y-93980000D03*
X115384000Y-93980000D03*
%TD*%
D10*
%TO.C,C2*%
X105692000Y-86106000D03*
X106652000Y-86106000D03*
%TD*%
D11*
%TO.C,J5*%
X116621600Y-61087000D03*
X112371600Y-61087000D03*
X120871600Y-61087000D03*
%TD*%
D14*
%TO.C,C1*%
X118562000Y-77343000D03*
X117602000Y-77343000D03*
%TD*%
%TO.C,C3*%
X96111000Y-86106000D03*
X95151000Y-86106000D03*
%TD*%
D11*
%TO.C,J2*%
X82296000Y-93980000D03*
X86546000Y-93980000D03*
X78046000Y-93980000D03*
%TD*%
M02*
